<?xml version="1.0" encoding="UTF-8"?>
<svg width="1743px" height="317px" viewBox="0 0 1743 317" version="1.1" xmlns="http://www.w3.org/2000/svg" xmlns:xlink="http://www.w3.org/1999/xlink">
    <title>Trim-Logo-Primary-ShieldLeft-FullColor</title>
    <g id="Trim-Logo-Primary-ShieldLeft-FullColor" stroke="none" stroke-width="1" fill="none" fill-rule="evenodd">
        <g id="logo-shield-left" transform="translate(0, -0)">
            <g id="bug/full-color">
                <path d="M0,-1.14867489e-14 L0,224.067157 C0,275.516054 41.8720281,317.348334 93.3698098,317.348334 L356.152883,317.348334 L356.152883,93.281177 C356.152883,41.8322804 314.280855,-1.14867489e-14 262.783073,-1.14867489e-14 L0,-1.14867489e-14 L0,-1.14867489e-14 Z" id="Outer-Shield" fill="#26D07C" fill-rule="nonzero"></path>
                <path d="M14.4386304,14.4249243 L262.783073,14.4249243 C306.098964,14.4249243 341.714253,50.0064042 341.714253,93.281177 L341.714253,302.92341 L93.3698098,302.92341 C50.0539187,302.92341 14.4386304,267.34193 14.4386304,224.067157 L14.4386304,14.4249243" id="Middle-Shield" fill="#FFFFFF"></path>
                <g id="Utility/53-elements/Stencil" transform="translate(28.8773, 28.369)" fill="#1D4094">
                    <path d="M226.430563,218.060134 L171.607303,218.060134 C171.607303,218.060134 204.130642,211.131982 198.554936,185.267331 C194.838121,168.176863 173.929708,158.939968 173.929708,158.939968 C207.846489,152.012779 199.019417,126.147165 199.019417,126.147165 C199.019417,126.147165 193.443711,107.210665 171.607303,99.8207646 L227.823038,99.8207646 C242.692233,99.8207646 254.770671,111.830074 258.487486,121.528718 C262.668782,133.999776 258.951967,153.397062 234.328674,158.47822 C246.409048,163.559378 256.629562,169.563071 259.417416,183.881123 C262.668782,197.736465 252.448267,218.060134 226.430563,218.060134 L226.430563,218.060134 Z M114.439382,222.215871 L164.615898,37.0066105 L176.230823,37.0066105 L126.054308,222.215871 L114.439382,222.215871 Z M39.1963811,160.66864 C74.9701187,153.278739 65.6785655,124.642634 65.6785655,124.642634 C65.6785655,124.642634 60.1028595,103.85914 36.873009,96.0074913 L92.1791357,96.0074913 C108.934316,96.0074913 122.377167,108.939336 125.165988,123.258351 C129.346316,144.041844 112.621133,160.66864 97.753874,160.66864 L39.1963811,160.66864 Z M36.873009,83.6547561 L116.319562,83.6547561 L116.319562,41.6250578 L36.873009,41.6250578 L36.873009,83.6547561 Z M231.499437,0 L0,0 L0,192.813201 C0,229.356712 29.8397361,259.648637 66.8999245,259.648637 L298.398361,259.648637 L298.398361,66.8354363 C298.398361,30.2919248 268.558625,0 231.499437,0 L231.499437,0 Z" id="Fill-4-Copy"></path>
                </g>
            </g>
            <g id="wordmark" transform="translate(458.3215, 94.0142)" fill="#1D4094">
                <g transform="translate(0, 0)">
                    <path d="M1222.9426,103.455753 L1190.58948,103.455753 L1190.58948,25.8639382 L1222.9426,25.8639382 C1244.94288,25.8639382 1258.53073,42.0284417 1258.53073,64.660345 C1258.53073,87.2912492 1244.94288,103.455753 1222.9426,103.455753 M1219.38357,0 L1161.4718,0 L1161.4718,129.319691 L1219.38357,129.319691 C1257.88346,129.319691 1284.41311,103.455953 1284.41311,64.660345 C1284.41311,25.8637384 1257.88346,0 1219.38357,0" id="D"></path>
                    <path d="M1083.93269,51.7278764 L1048.23639,51.7278764 L1048.23639,25.8639382 L1083.93269,25.8639382 C1099.12478,25.8639382 1106.47174,26.9210621 1106.47174,38.7953679 C1106.47174,50.7548909 1099.60788,51.7278764 1083.93269,51.7278764 L1083.93269,51.7278764 Z M1019.11871,0 L1019.11871,129.319691 L1048.23561,129.319691 L1048.23561,75.7202468 L1075.3959,75.7202468 L1112.94206,129.319691 L1148.53061,129.319691 L1109.38331,73.4358214 C1129.68543,69.0130617 1138.32297,57.9741738 1138.32297,38.7661887 C1138.32297,11.5221894 1122.64703,0 1083.82416,0 L1019.11871,0 Z" id="R"></path>
                    <polygon id="I" points="960.879288 129.319391 989.996176 129.319391 989.996176 9.98974836e-05 960.879288 9.98974836e-05"></polygon>
                    <polygon id="H" points="902.644313 48.9569599 844.409538 48.9569599 844.409538 0.000199794967 815.29165 0.000199794967 815.29165 129.319491 844.409538 129.319491 844.409538 74.8204186 902.644313 74.8204186 902.644313 129.319491 931.7612 129.319491 931.7612 0.000199794967 902.644313 0.000199794967"></polygon>
                    <polygon id="T" points="666.468625 0.000399589936 789.40915 0.000399589936 789.40915 25.8638583 742.497831 25.8638583 742.497831 129.319691 713.379944 129.319691 713.379944 25.8638583 666.468625 25.8638583"></polygon>
                    <polygon id="H" points="478.82185 74.8206184 537.056625 74.8206184 537.056625 129.319691 566.174513 129.319691 566.174513 0.000399589936 537.056625 0.000399589936 537.056625 48.9571597 478.82185 48.9571597 478.82185 0.000399589936 449.704962 0.000399589936 449.704962 129.319691 478.82185 129.319691"></polygon>
                    <polygon id="T" points="307.352013 0.000399589936 423.822563 0.000399589936 423.822563 25.8638583 376.911244 25.8638583 376.911244 129.319691 347.793356 129.319691 347.793356 25.8638583 300.419182 25.8638583"></polygon>
                    <polygon id="F" points="213.528775 74.8202188 263.99898 74.8202188 270.792854 48.9567601 213.528775 48.9567601 213.528775 25.8634587 277.910626 25.8634587 284.7045 0 184.411887 0 184.411887 129.319291 213.528775 129.319291"></polygon>
                    <polygon id="I" points="126.176512 129.319391 155.2934 129.319391 155.2934 9.98974836e-05 126.176512 9.98974836e-05"></polygon>
                    <polygon id="F" points="29.1178874 74.8206184 80.8826873 74.8206184 80.8826873 48.9571597 29.1178874 48.9571597 29.1178874 25.8638583 100.293613 25.8638583 100.293613 0.000399589936 0 0.000399589936 0 129.319691 29.1178874 129.319691"></polygon>
                </g>
            </g>
        </g>
    </g>
</svg>