<svg id="Layer_1" data-name="Layer 1" xmlns="http://www.w3.org/2000/svg" viewBox="0 0 72 28.33484"><defs><style>.cls-1{fill:#eb5527;}.cls-2{fill:#5b6670;}</style></defs><path class="cls-1" d="M53.56692,23.60657a1.89223,1.89223,0,0,0-1.0516.43257v-.36895h-.74974v3.41723h.81583V24.62216a1.04137,1.04137,0,0,1,.76355-.36007c.27425,0,.41828.145.41828.60423v2.2211h.81534v-2.338c0-.697-.327-1.14285-1.01166-1.14285m2.39571-3.07V18.92712c0-1.026-.3946-1.36136-1.31254-1.38011a1.533,1.533,0,0,0-1.27554.624l.5263.39953a.87509.87509,0,0,1,.74924-.41827c.28806,0,.49966.143.49966.40643v.28954c-1.3293.15784-1.95918.56428-1.95918,1.33917a.87232.87232,0,0,0,.92534.9061,1.76645,1.76645,0,0,0,1.06443-.36106l.05278.29693h.79511a1.53658,1.53658,0,0,1-.0656-.49275m-.81288-.40743a1.42257,1.42257,0,0,1-.7517.36106.37083.37083,0,0,1-.39362-.40052c0-.48042.59881-.59041,1.14532-.69646ZM45.303,23.60657a1.1792,1.1792,0,0,0-.82718.3798h-.01134v-1.644h-.81633v4.74505h.63827l.09125-.36649a1.2604,1.2604,0,0,0,.92533.43259c.90659,0,1.36877-.80153,1.36877-1.866a1.516,1.516,0,0,0-1.36877-1.681M45.09242,26.495a.85579.85579,0,0,1-.6279-.30088v-1.644a.926.926,0,0,1,.6279-.28806c.4893,0,.76405.39362.76405,1.11573,0,.72409-.27475,1.11721-.76405,1.11721m22.469-7.54127a.971.971,0,0,1,.76108-.55294.8635.8635,0,0,1,.147.0074V17.547a1.005,1.005,0,0,0-.95987.65059h-.0148v-.587h-.74825v3.4187h.81485Zm-22.574,1.53646a1.01456,1.01456,0,0,1-.79363-.49127l-.54554.40644a1.50006,1.50006,0,0,0,1.29379.68808c.71768,0,1.25581-.31519,1.25581-1.02251,0-1.2489-1.70713-1.0008-1.70713-1.58382,0-.20371.143-.33491.45872-.33491a.93026.93026,0,0,1,.63629.36105l.51495-.44737a1.56369,1.56369,0,0,0-1.20353-.5189,1.03,1.03,0,0,0-1.12953.99291c0,1.18823,1.70861.97762,1.70861,1.56162,0,.23232-.19878.38868-.48881.38868m5.37443,4.49251c0-1.023-.39459-1.35742-1.316-1.37616a1.52,1.52,0,0,0-1.27356.62346l.52482.39953a.87451.87451,0,0,1,.74874-.42123c.28905,0,.50016.146.50016.40989v.28756c-1.32782.15587-1.95622.56625-1.95622,1.34065a.87278.87278,0,0,0,.92533.90709A1.79134,1.79134,0,0,0,49.58,26.792l.05277.29546h.79315a1.51292,1.51292,0,0,1-.06413-.49276Zm-.81583,1.204a1.39927,1.39927,0,0,1-.74825.36056.37032.37032,0,0,1-.3951-.4c0-.47993.59782-.59141,1.14335-.69745Zm2.51113-5.15741V18.5705c0-.81337-.48733-1.02349-.84148-1.02349a1.52714,1.52714,0,0,0-1.1764.50016.89336.89336,0,0,0-.84149-.50016,1.34155,1.34155,0,0,0-1.02447.43258v-.369h-.74382v3.4187h.81485V18.5705a1.24381,1.24381,0,0,1,.68512-.3655c.29546.01135.40545.16179.40545.44v2.38436h.81682V18.5705a1.23257,1.23257,0,0,1,.68315-.3655c.295.01135.40792.16179.40792.44v2.38436ZM64.14365,17.547c-.92534,0-1.48222.68956-1.48222,1.77471,0,1.08367.55688,1.77175,1.44473,1.77175a1.55131,1.55131,0,0,0,1.4324-.69549l-.59388-.368a.9035.9035,0,0,1-.7601.4089c-.38177,0-.69547-.27819-.71027-.987h2.06425V19.117a1.43356,1.43356,0,0,0-1.39491-1.57m-.66934,1.354c.0148-.474.2634-.74874.658-.74874s.64369.27473.65849.74874Zm-2.3819-2.41888h-.81534v1.12855h-.47351v.658h.47351v2.0381c0,.48585.23676.78674.842.78674a5.30788,5.30788,0,0,0,.64369-.05278v-.66934a1.78743,1.78743,0,0,1-.37635.06757c-.20322,0-.294-.05425-.294-.23675V18.26863h.67033v-.658h-.67033Zm3.00981,7.12448a1.89528,1.89528,0,0,0-1.05309.43257v-.36895h-.74826v3.41723h.81583V24.62216a1.03192,1.03192,0,0,1,.7596-.36007c.2777,0,.42124.145.42124.60423v2.2211h.81435v-2.338c0-.697-.32751-1.14285-1.00967-1.14285m4.423.30088a1.36008,1.36008,0,0,0-.838-.30088A1.225,1.225,0,0,0,66.3386,24.7948a1.13166,1.13166,0,0,0,.50558.90659c-.15044.04489-.53024.29546-.53024.62445,0,.367.34527.45133.5041.552v.01233a.60179.60179,0,0,0-.61706.63136c0,.53813.60473.81336,1.52365.81336,1.09057,0,1.58283-.52432,1.58283-1.01214,0-1.36581-2.24477-.61706-2.24477-1.17,0-.19583.28165-.20766.63481-.20766.85431,0,1.28837-.46218,1.28837-1.10488a1.01734,1.01734,0,0,0-.182-.60571,1.08092,1.08092,0,0,1,.52481-.07892v-.549a.881.881,0,0,0-.8035.30088m-.99587,3.11387c.78525,0,1.0304.23726,1.0304.3951,0,.1164-.17708.38029-.70386.38029-.68316,0-.9061-.1169-.9061-.38029,0-.147.1312-.3951.57956-.3951m.15044-1.68148a.56583.56583,0,1,1,.55639-.56428.56284.56284,0,0,1-.55639.56428M58.07817,18.1976h-.01233v-.587H57.3166v3.4187H58.13V18.95376a.976.976,0,0,1,.76306-.55294.85138.85138,0,0,1,.14649.0074V17.547a1.0074,1.0074,0,0,0-.96134.65059m.70929,5.47259h-.93273l-1.00425,1.31994h-.02615V22.34237H56.008v4.74505h.81632V26.03581l.41384-.47993.75566,1.53154H58.859l-1.07626-2.14218Zm1.18133,3.41723h.81584V23.67019h-.81584Zm0-4.04908h.81584v-.76058h-.81584Z"/><rect class="cls-1" x="43.64819" y="0.00019" width="2.58018" height="2.74098"/><path class="cls-2" d="M2.5787,11.50354V0H0V10.91165c0,3.68653,1.73623,4.67549,5.4573,4.67549H6.89364c1.81614,0,3.467-.28953,4.12158-1.87286l.1317-.38029H5.37739c-2.23836,0-2.79869-.34923-2.79869-1.83045M19.72648,4.14526H17.24791c-3.30625,0-6.101.81238-6.101,4.59263v2.25662c0,3.78026,2.79474,4.59263,6.101,4.59263h2.47857c3.30625,0,6.1005-.81237,6.1005-4.59263V8.73789c0-3.78025-2.79425-4.59263-6.1005-4.59263m3.52031,6.74764c0,2.02774-1.061,2.43369-2.99746,2.43369H16.72506c-1.937,0-2.99746-.40595-2.99746-2.43369V8.83951c0-2.02824,1.06048-2.43369,2.99746-2.43369h3.52427c1.93649,0,2.99746.40249,2.99746,2.43369ZM55.707,9.36235l5.26986-5.20969H57.42693L53.92388,7.61724,51.321,5.04692a4.33313,4.33313,0,0,0-3.14791-.89031l-1.33128-.01135,5.31081,5.22449-5.92392,5.842V4.14526H43.648V15.42635h5.91109l4.36475-4.30754,4.37462,4.307h3.54893ZM26.94271,8.73789v2.25662c0,3.78026,2.79622,4.59263,6.103,4.59263l1.21289-.00641c1.58876,0,3.07-.24169,3.66139-1.66718l.24169-.587h-5.6398c-1.937,0-2.997-.40595-2.997-2.43369V8.83951c0-2.02824,1.06-2.43369,2.997-2.43369h6.94543V16.253c0,1.91134-1.025,2.31284-3.06653,2.31284h-5.9323l-.01529,2.34h6.86109c1.59911,0,4.73567-.46267,4.73567-4.57389V4.14526H33.04567c-3.30822,0-6.103.81238-6.103,4.59263"/><path class="cls-1" d="M71.00463,25.56644A.99538.99538,0,1,1,72,24.57107a.99507.99507,0,0,1-.99537.99537m0-1.84475a.84945.84945,0,1,0,.83852.84938.84348.84348,0,0,0-.83852-.84938m.24169,1.39392-.25007-.4454H70.8315v.4454h-.15143V24.02405H71.051a.334.334,0,0,1,.34429.327.30316.30316,0,0,1-.2338.29989l.26093.46464Zm-.2116-.9569H70.8315V24.541h.20322a.19168.19168,0,1,0,0-.38227"/></svg>