<?xml version="1.0" encoding="utf-8"?>
<!-- Generator: Adobe Illustrator 28.2.0, SVG Export Plug-In . SVG Version: 6.00 Build 0)  -->
<svg version="1.1" id="Layer_1" xmlns="http://www.w3.org/2000/svg" xmlns:xlink="http://www.w3.org/1999/xlink" x="0px" y="0px"
	 viewBox="0 0 70 55" style="enable-background:new 0 0 70 55;" xml:space="preserve">
<style type="text/css">
	.st0{fill:#FFFFFF;}
</style>
<g>
	<path class="st0" d="M2.7,15.4h59.8c1.5,0,2.7,1.2,2.7,2.7v18.6c0,1.5-1.2,2.7-2.7,2.7H2.7c-1.5,0-2.7-1.2-2.7-2.7V18.2
		C0,16.7,1.2,15.4,2.7,15.4z"/>
	<g>
		<path d="M12.5,35.4c0.4-0.2,0.6-0.5,0.6-1c0-0.9-0.7-1.3-1.5-1.3H9.3v4.7h2.2c0.9,0,1.9-0.4,1.8-1.5C13.2,35.7,13,35.6,12.5,35.4z
			 M10.3,34.1h1.2c0.7,0,0.7,1,0.1,1h-1.2L10.3,34.1L10.3,34.1z M11.6,36.9h-1.3v-1h1.3C12.6,35.9,12.5,36.9,11.6,36.9z"/>
		<path d="M62.1,15.2H22.6H22h-19c-1.8,0-3.2,1.5-3.2,3.2v18.1c0,1.8,1.5,3.2,3.2,3.2h19h0.5h39.6c1.8,0,3.2-1.5,3.2-3.2V18.4
			C65.4,16.7,63.9,15.2,62.1,15.2z M22,39.3h-19c-1.5,0-2.7-1.3-2.7-2.7V18.4c0-1.5,1.3-2.7,2.7-2.7h19L22,39.3
			C22.1,39.3,22,39.3,22,39.3z"/>
		<path d="M8.9,36.3c-0.1-0.6-0.3-0.8-0.8-1c0.4-0.2,0.6-0.5,0.6-1c0-0.9-0.7-1.3-1.5-1.3H4.9v4.7h2.2C8.1,37.9,9,37.4,8.9,36.3z
			 M5.9,34.1h1.2c0.7,0,0.7,1,0.1,1H5.9V34.1z M5.9,35.9h1.3c0.9,0,0.9,1,0,1H5.9V35.9z"/>
		<path d="M13.8,37.9H16c0.9,0,1.9-0.4,1.8-1.5c-0.1-0.6-0.4-0.8-0.8-1c0.4-0.2,0.6-0.5,0.6-1c0-0.9-0.7-1.3-1.5-1.3h-2.3V37.9z
			 M16,36.9h-1.3v-1H16C17,35.9,17,36.9,16,36.9z M14.8,34.1h1.2c0.7,0,0.7,1,0.1,1h-1.2V34.1z"/>
		<polygon points="9.6,32.3 13.2,32.3 13.5,31 15.7,31 15.4,30.1 7.4,30.1 7.1,31 9.2,31 		"/>
		<path d="M9,27.3l1.9,1.4c0.3,0.2,0.4,0.5,0.2,0.7l0.2,0.2l1-1.3c0.6-0.8,0.5-1.9-0.4-2.6L10,24.2c-0.2-0.2-0.2-0.4-0.1-0.7
			l-0.2-0.2l-1,1.5C8.1,25.5,8.2,26.8,9,27.3z"/>
		<path d="M10.3,22.8l2.7,1.9c0.5,0.4,0.6,1.4,0.2,1.9l0.2,0.2l1.8-2.6c0.8-1.2,0.8-2.9-0.5-3.8l-3-2.1c-0.4-0.2-0.6-0.8-0.2-1.3
			L11.3,17l-1.6,2.3C9,20.3,9.3,22.1,10.3,22.8z"/>
		<path d="M69,37.2c0-0.2-0.1-0.3-0.2-0.4c-0.2-0.2-0.4-0.2-0.6-0.2h-1v2.1h0.3v-0.8h0.5l0.6,0.8h0.4l-0.7-0.9
			C68.8,37.8,69,37.6,69,37.2z M67.6,37.6v-0.7h0.6c0.2,0,0.5,0.1,0.5,0.4s-0.2,0.4-0.5,0.4H67.6z"/>
		<path d="M68.1,35.7c-1.2,0-2.1,0.9-2.1,2.1s0.9,2.1,2.1,2.1s2.1-0.9,2.1-2.1S69.3,35.7,68.1,35.7z M69.1,39.3
			c-0.6,0.4-1.3,0.4-1.9,0c-0.6-0.4-0.9-1-0.9-1.6c0-0.7,0.4-1.3,0.9-1.6c0.6-0.4,1.3-0.4,1.9,0s0.9,0.9,0.9,1.6
			C70,38.4,69.7,39,69.1,39.3z"/>
	</g>
	<path class="st0" d="M28.6,26.5l-0.2-0.6h-1.5l-0.2,0.6h-0.9l1.3-3.5H28l1.3,3.5H28.6z M27.6,23.8l-0.5,1.5h1.1L27.6,23.8z
		 M29.6,24.8c0-1.1,0.8-1.8,1.9-1.8c0.6,0,1.2,0.3,1.5,0.9l-0.6,0.3c-0.2-0.3-0.5-0.5-0.8-0.5c-0.6,0-1.1,0.5-1.1,1.2
		c0,0.7,0.5,1.2,1.1,1.2c0.4,0,0.7-0.2,0.8-0.5l0.6,0.3c-0.2,0.4-0.7,0.9-1.5,0.9C30.5,26.6,29.6,25.9,29.6,24.8z M33.3,24.8
		c0-1.1,0.8-1.8,1.9-1.8c0.6,0,1.2,0.3,1.5,0.9L36,24.1c-0.2-0.3-0.5-0.5-0.8-0.5c-0.6,0-1.1,0.5-1.1,1.2c0,0.7,0.5,1.2,1.1,1.2
		c0.4,0,0.7-0.2,0.8-0.5l0.6,0.3c-0.2,0.5-0.7,0.9-1.5,0.9C34.1,26.6,33.3,25.9,33.3,24.8z M39.1,26.5l-0.7-1.3h-0.5v1.3h-0.7V23
		h1.6c0.7,0,1.2,0.5,1.2,1.2c0,0.6-0.4,0.9-0.8,1l0.8,1.3L39.1,26.5L39.1,26.5z M39.1,24.1c0-0.3-0.2-0.5-0.5-0.5h-0.8v0.9h0.8
		C39,24.6,39.1,24.5,39.1,24.1L39.1,24.1z M40.5,26.5V23H43v0.7h-1.7v0.7H43v0.7h-1.7v0.8H43v0.7C43,26.5,40.5,26.5,40.5,26.5z
		 M43.7,26.5V23H45c1.1,0,1.9,0.7,1.9,1.8s-0.8,1.8-1.9,1.8L43.7,26.5L43.7,26.5z M46.1,24.8c0-0.6-0.4-1.1-1.1-1.1h-0.6v2.2H45
		C45.7,25.9,46.1,25.4,46.1,24.8L46.1,24.8z M47.4,26.5V23h0.7v3.5H47.4z M49.8,26.5v-2.9h-1v-0.6h2.8v0.7h-1v2.9L49.8,26.5z
		 M52,26.5V23h2.5v0.7h-1.7v0.7h1.7v0.7h-1.7v0.8h1.7v0.7C54.5,26.5,52,26.5,52,26.5z M55.2,26.5V23h1.3c1.1,0,1.9,0.7,1.9,1.8
		s-0.8,1.8-1.9,1.8L55.2,26.5L55.2,26.5z M57.6,24.8c0-0.6-0.4-1.1-1.1-1.1h-0.6v2.2h0.6C57.3,25.9,57.6,25.4,57.6,24.8L57.6,24.8z
		 M26.2,32.6V29H28c0.7,0,1,0.4,1,0.9c0,0.4-0.2,0.7-0.6,0.8c0.4,0.1,0.7,0.4,0.7,0.9c0,0.5-0.4,0.9-1,0.9
		C28,32.6,26.2,32.6,26.2,32.6z M28.3,30c0-0.2-0.2-0.4-0.4-0.4h-1v0.8h0.9C28.1,30.4,28.3,30.2,28.3,30L28.3,30z M28.3,31.5
		c0-0.2-0.2-0.4-0.5-0.4h-1v0.8h1C28.2,31.9,28.3,31.7,28.3,31.5z M29.7,31.1V29h0.8V31c0,0.5,0.2,0.8,0.8,0.8
		c0.5,0,0.8-0.4,0.8-0.8V29h0.8v2.1c0,0.9-0.5,1.5-1.6,1.5C30.2,32.6,29.7,32,29.7,31.1z M33.4,32l0.4-0.6c0.2,0.3,0.7,0.5,1.2,0.5
		c0.4,0,0.6-0.2,0.6-0.4c0-0.2-0.3-0.3-0.7-0.4c-0.6-0.1-1.3-0.2-1.3-1.1c0-0.6,0.5-1,1.3-1c0.5,0,1,0.2,1.3,0.5l-0.5,0.6
		c-0.2-0.2-0.6-0.4-1-0.4c-0.3,0-0.5,0.2-0.5,0.4c0,0.2,0.3,0.3,0.7,0.4c0.6,0.1,1.3,0.3,1.3,1.1c0,0.6-0.5,1.2-1.4,1.2
		C34.2,32.6,33.7,32.4,33.4,32z M36.8,32.6V29h0.7v3.5H36.8z M40.7,32.6L39,30.3v2.3h-0.7V29H39l1.6,2.2V29h0.7v3.5H40.7z
		 M42.1,32.6V29h2.5v0.7h-1.8v0.7h1.7v0.7h-1.7v0.8h1.7v0.7C44.6,32.6,42.1,32.6,42.1,32.6z M45,32l0.4-0.6c0.2,0.3,0.7,0.5,1.2,0.5
		c0.4,0,0.6-0.2,0.6-0.4c0-0.2-0.3-0.3-0.7-0.4c-0.6-0.1-1.3-0.2-1.3-1.1c0-0.6,0.5-1,1.3-1c0.5,0,1,0.2,1.3,0.5l-0.3,0.5
		c-0.2-0.2-0.6-0.4-1-0.4c-0.3,0-0.5,0.2-0.5,0.4c0,0.2,0.3,0.3,0.7,0.4c0.6,0.1,1.3,0.3,1.3,1.1c0,0.6-0.5,1.2-1.4,1.2
		C45.8,32.6,45.4,32.4,45,32z M48.2,32l0.4-0.6c0.2,0.3,0.7,0.5,1.2,0.5c0.4,0,0.6-0.2,0.6-0.4c0-0.2-0.3-0.3-0.7-0.4
		C49,31,48.4,30.8,48.4,30c0-0.6,0.5-1,1.3-1c0.5,0,1,0.2,1.3,0.5l-0.4,0.5c-0.2-0.2-0.6-0.4-1-0.4c-0.3,0-0.5,0.2-0.5,0.4
		c0,0.2,0.3,0.3,0.7,0.4c0.6,0.1,1.3,0.3,1.3,1.1c0,0.6-0.5,1.2-1.4,1.2C49,32.6,48.5,32.4,48.2,32z"/>
</g>
</svg>
