<?xml version="1.0" encoding="utf-8"?>
<!-- Generator: Adobe Illustrator 28.2.0, SVG Export Plug-In . SVG Version: 6.00 Build 0)  -->
<svg version="1.1" id="Layer_1" xmlns="http://www.w3.org/2000/svg" xmlns:xlink="http://www.w3.org/1999/xlink" x="0px" y="0px"
	 viewBox="0 0 70 55" style="enable-background:new 0 0 70 55;" xml:space="preserve">
<style type="text/css">
	.st0{fill-rule:evenodd;clip-rule:evenodd;}
</style>
<path class="st0" d="M16.6,21.6h9.5c8.6,0,14.1,5.3,14.1,13.6c0,9.1-6.1,13.6-15.8,13.6h-7.8V21.6z M25.6,27.9
	c-0.3,0-0.8,0.1-1.4,0.1v14.7c4.9,0,8.6-1.9,8.6-7.5C32.8,30.3,29.8,27.9,25.6,27.9L25.6,27.9z M69.9,29.5v-7.2
	c-1.9-0.8-3.7-1.2-6.1-1.2c-8,0-14.3,6-14.3,14S55.8,49,63.8,49c2.8,0,4.7-0.6,6.2-1.8v-7.2c-2.2,1.4-3.8,2-5.8,2
	c-4,0-7.1-2.9-7.1-7.2c0-4.3,3.2-7.3,7.1-7.3C66.2,27.5,67.8,28.3,69.9,29.5L69.9,29.5z M0,16.1v1.3h5.4v-1.3
	c-1.5-0.1-1.8-0.2-1.8-1.3V8.4l3.2,9.1h1.4l3.4-9.1v6.3c0,1.4,0,1.4-1.8,1.4v1.3h6.2v-1.3c-1.8,0-1.8-0.2-1.8-1.1V8.7
	c0-1,0.2-1.4,1.8-1.4V6h-5.3L8,13.3L5.4,6H0.1v1.4c1.5,0,1.8,0,1.8,1.3v6C1.8,15.8,1.8,16.1,0,16.1L0,16.1z M25.7,16.1v1.3h4.9v-1.3
	c-1.2-0.1-1.2-0.2-1.2-1.8v-1.4c0-1.4,0.6-2.4,1.8-2.4c1,0,1.3,0.6,1.3,1.5v2.9c0,1-0.1,1.2-1.2,1.2v1.3h4.4v-1.3
	c-1,0-1.1-0.1-1.1-1.1v-2c0-1.4,0.6-2.6,1.9-2.6c1,0,1.2,0.6,1.2,1.8v3c0,0.9,0,1-1.2,1v1.3h4.9v-1.3c-1.5,0-1.6,0.1-1.6-0.8v-3.3
	c0-1.8-0.5-3-2.4-3c-1.1,0-1.8,0.5-2.8,1.4C34.1,9.7,33.4,9,32.2,9s-2.1,0.6-2.8,1.6V9.3h-3.7v1.2c1.5,0,1.6,0.1,1.6,1.2v2.7
	C27.4,16.1,27.4,16.1,25.7,16.1L25.7,16.1z M0.2,21.6v27.2h7.5l0.1-10.4h7.3V32H7.9l-0.2-4.1h7.8v-6.3L0.2,21.6L0.2,21.6z M41.9,6
	h3.4v4.3c1-0.8,1.5-1.1,2.5-1.1c2,0,3.3,1.8,3.3,4.3c0,2.6-1.4,4.4-3.6,4.4c-1.1,0-1.8-0.3-2.6-1.1l-0.7,1h-1v-9
	c0-1.4-0.1-1.5-1.4-1.5L41.9,6L41.9,6z M48.9,13.3c0-1.8-0.7-2.8-1.7-2.8c-1.3,0-1.8,1-1.8,3c0,1.7,0.6,2.8,1.8,2.8
	C48.1,16.3,48.9,15.4,48.9,13.3L48.9,13.3z M61.7,16.1v1.3H67v-1.3c-1.5,0-1.6,0.1-1.6-1.1v-1.8c0-1.6,0.6-3.1,2-3.1
	c0.1,0,0.2,0,0.5,0.1c-0.5,0.2-0.9,0.6-0.9,1.1c0,0.6,0.5,1.1,1.1,1.1c0.8,0,1.4-0.6,1.4-1.5c0-1.1-0.8-1.8-1.8-1.8
	c-0.9,0-1.5,0.5-2.3,1.4V9.3h-3.7v1.2c1.3,0,1.6,0,1.6,1.1V15C63.4,16.1,63.4,16.1,61.7,16.1z M55,13.6c0,1.6,0.7,2.6,2.1,2.6
	c1.2,0,1.8-0.7,1.9-1.8h1.5c-0.2,2.1-1.6,3.2-3.6,3.2c-2.4,0-4.2-1.4-4.2-4.3c0-2.6,1.6-4.4,3.9-4.4c2.3,0,3.8,1.8,3.8,4.5L55,13.6
	L55,13.6z M56.6,10.4c-1,0-1.6,0.7-1.6,1.9h3.1C58.2,11,57.7,10.4,56.6,10.4z M19,13.6c0,1.6,0.8,2.6,2.2,2.6c1.2,0,1.8-0.7,1.9-1.8
	h1.4c-0.2,2.1-1.6,3.2-3.6,3.2c-2.4,0-4.2-1.4-4.2-4.3c0-2.6,1.6-4.4,4-4.4c2.3,0,3.8,1.8,3.8,4.5L19,13.6L19,13.6z M20.7,10.4
	c-1,0-1.6,0.7-1.6,1.9h3C22.2,10.9,21.7,10.4,20.7,10.4z M41.1,48.9h7.4V21.6h-7.4V48.9L41.1,48.9z"/>
</svg>
