<?xml version="1.0" encoding="utf-8"?>
<!-- Generator: Adobe Illustrator 28.2.0, SVG Export Plug-In . SVG Version: 6.00 Build 0)  -->
<svg version="1.1" id="Layer_1" xmlns="http://www.w3.org/2000/svg" xmlns:xlink="http://www.w3.org/1999/xlink" x="0px" y="0px"
	 viewBox="0 0 70 55" style="enable-background:new 0 0 70 55;" xml:space="preserve">
<style type="text/css">
	.st0{fill:none;}
	.st1{fill:#242020;}
</style>
<rect x="9.6" y="-0.1" class="st0" width="50.7" height="55"/>
<path class="st1" d="M32.2,50.7L32.2,50.7l-2.9-5.9h-1.6v8.5h1.4v-6l0,0l2.9,6h1.5v-8.5h-1.4V50.7L32.2,50.7z M25.5,38.8l-1.3,4.6
	H25l0.3-0.9h1.3l0.2,0.9h0.8l-1.3-4.6C26.3,38.8,25.5,38.8,25.5,38.8z M25.4,41.7l0.5-1.8l0,0l0.4,1.8H25.4z M20.1,41.1
	c0-2.1-1.3-2.4-1.8-2.4s-1.8,0.3-1.8,2.4c0,2.1,1.3,2.4,1.8,2.4c0.2,0,0.6-0.1,0.9-0.3l0.4,0.5l0.4-0.5l-0.4-0.5
	C19.9,42.4,20.1,41.8,20.1,41.1L20.1,41.1z M19.2,42.1l-0.4-0.4l-0.4,0.5l0.4,0.4c-0.1,0.1-0.3,0.1-0.4,0.1c-0.4,0-1-0.4-1-1.6
	c0-1.3,0.6-1.6,1-1.6c0.4,0,1,0.4,1,1.6C19.4,41.6,19.3,41.8,19.2,42.1L19.2,42.1z M28.1,38.8v4.6h2.6v-0.8h-1.8v-3.7H28.1
	L28.1,38.8z M36.3,43.4H37v-4.6h-0.8v1.8h-1.4v-1.8h-0.8v4.6h0.8v-2h1.4V43.4L36.3,43.4z M21.8,49.6h3.5v-1.5h-3.5v-1.8h3.9v-1.5
	h-5.3v8.5h5.5v-1.5h-4L21.8,49.6L21.8,49.6z M16.1,39.7v-0.8h-2.7v4.6h2.8v-0.8h-2v-1.2H16v-0.8h-1.8v-1
	C14.1,39.7,16.1,39.7,16.1,39.7z M15,44.8h-1.5v8.5h5.1v-1.5H15L15,44.8L15,44.8z M20.7,38.8v3c0,0.5,0.1,0.8,0.3,1.1
	c0.4,0.4,0.8,0.6,1.2,0.6c0.9,0,1.5-0.5,1.5-1.7v-2.9h-0.8v3c0,0.6-0.2,0.8-0.8,0.8c-0.4,0-0.6-0.3-0.6-0.9v-2.9L20.7,38.8
	L20.7,38.8z M48.7,43.4h0.8v-4.6h-0.8V43.4L48.7,43.4z M56.9,51.4c0-1.6-0.4-1.8-0.9-2.2c0.7-0.3,1.1-1.1,1.1-2
	c0-0.7-0.4-2.4-2.3-2.4h-3.6v8.5h1.5V50h1.5c1.1,0,1.2,0.4,1.2,1.6c0,0.9,0.1,1.3,0.1,1.8h1.7v-0.2C56.9,52.9,56.9,52.6,56.9,51.4
	L56.9,51.4z M54.4,48.6h-1.8v-2.2h1.9c0.9,0,1.1,0.6,1.1,1.1C55.6,48.2,55.2,48.6,54.4,48.6L54.4,48.6z M46.7,42.8
	c-0.7,0-0.8-0.5-0.8-0.7h-0.7c0,0.6,0.2,1.5,1.5,1.5c0.4,0,1.5-0.1,1.5-1.5c0-0.8-0.5-1.1-1-1.2l-0.9-0.3c-0.1-0.1-0.4-0.1-0.4-0.5
	c0-0.4,0.4-0.6,0.6-0.6c0.7,0,0.7,0.5,0.8,0.7H48c0-0.6-0.3-1.5-1.4-1.5c-1.2,0-1.4,0.9-1.4,1.4c0,1,0.6,1.2,1.2,1.3l0.4,0.1
	c0.4,0.1,0.6,0.2,0.6,0.6C47.5,42.6,47.1,42.8,46.7,42.8L46.7,42.8z M53.1,43.4v-4.6h-0.7V42l0,0L51,38.8h-0.8v4.6h0.7v-3.2l0,0
	l1.5,3.2H53.1L53.1,43.4z M55.6,39.5c0.6,0,0.8,0.6,0.8,0.8h0.8c-0.1-0.6-0.5-1.5-1.6-1.5c-1.3,0-1.8,1.2-1.8,2.4
	c0,1.6,0.8,2.4,1.7,2.4c0.7,0,1-0.4,1.1-0.7l0.1,0.6h0.5v-2.5h-1.5v0.8h0.8c-0.1,0.9-0.7,1-0.9,1c-0.5,0-1.1-0.4-1.1-1.5
	C54.5,40,55,39.5,55.6,39.5L55.6,39.5z M44.7,41.8v-2.9h-0.8v3c0,0.6-0.2,0.8-0.8,0.8c-0.4,0-0.6-0.3-0.6-0.9v-2.9h-0.8v3
	c0,0.5,0.1,0.8,0.3,1.1c0.4,0.4,0.8,0.6,1.2,0.6C44.1,43.5,44.7,43,44.7,41.8L44.7,41.8z M45.2,49.6h3.5v-1.5h-3.5v-1.8h3.9v-1.5
	h-5.3v8.5h5.5v-1.5h-4L45.2,49.6L45.2,49.6z M41.1,41.1c0-2.1-1.3-2.4-1.8-2.4c-0.5,0-1.8,0.3-1.8,2.4c0,2.1,1.3,2.4,1.8,2.4
	C39.8,43.5,41.1,43.2,41.1,41.1z M38.4,41.1c0-1.3,0.6-1.6,1-1.6s1,0.4,1,1.6c0,1.3-0.6,1.6-1,1.6C38.9,42.7,38.4,42.4,38.4,41.1
	L38.4,41.1z M39,44.8h-3.2v8.5h3.2c2.4,0,3-2.7,3-4.5C41.9,47.2,41.4,44.9,39,44.8L39,44.8z M38.7,51.9h-1.5v-5.5h1.5
	c0.6,0,1.7,0.2,1.7,2.7C40.4,50.4,40,51.9,38.7,51.9L38.7,51.9z M34.9,1.1L11.3,13.1V18h2.6v17.6h41.7V18h2.8v-4.9L34.9,1.1
	L34.9,1.1z M51,31H18.6V15.4L34.9,7L51,15.4L51,31L51,31z M27.2,19.5h15.3v-4.2H27.2V19.5z M27.2,27.1h15.2v-4.2H27.2V27.1z"/>
</svg>
