<?xml version="1.0" encoding="UTF-8"?><svg id="Layer_1" xmlns="http://www.w3.org/2000/svg" viewBox="0 0 28.4 17.5"><defs><style>.cls-1{fill:#fff;fill-rule:evenodd;}</style></defs><path class="cls-1" d="M6.8,6.4h3.9c3.5,0,5.7,2.1,5.7,5.5,0,3.7-2.5,5.5-6.4,5.5h-3.2V6.4h0Zm3.6,2.5h-.6v5.9c2,0,3.5-.8,3.5-3,0-1.9-1.2-2.9-2.9-2.9h0Z"/><path class="cls-1" d="M28.4,9.6v-2.9c-.8-.3-1.5-.5-2.5-.5-3.2,0-5.8,2.4-5.8,5.7s2.5,5.6,5.8,5.6c1.1,0,1.9-.2,2.5-.7v-2.9c-.9,.6-1.5,.8-2.4,.8-1.6,0-2.9-1.2-2.9-2.9s1.3-2.9,2.9-2.9c.9-.1,1.5,.2,2.4,.7h0Z"/><path class="cls-1" d="M0,4.2v.5H2.2v-.5c-.6,0-.7-.1-.7-.5V1l1.2,3.7h.5l1.4-3.7V3.6q0,.5-.8,.6v.5h2.5v-.5c-.7,0-.7-.1-.7-.5V1.1c0-.4,.1-.6,.7-.6V0h-2l-1.1,3L2.2,0H0V.5c.6,0,.7,0,.7,.5V3.5c0,.6,0,.7-.7,.7H0Z"/><path class="cls-1" d="M10.4,4.2v.5h2v-.5c-.5,0-.5-.1-.5-.7v-.6c0-.5,.2-1,.7-1,.4,0,.5,.3,.5,.6v1.2c0,.4,0,.5-.5,.5v.5h1.8v-.5c-.4,0-.5,0-.5-.4v-.9c0-.6,.3-1,.8-1,.4,0,.5,.2,.5,.7v1.2c0,.3,0,.4-.5,.4v.5h2v-.5q-.6,0-.6-.3v-1.4c0-.8-.2-1.2-1-1.2-.5,0-.8,.2-1.1,.6-.2-.4-.5-.6-1-.6s-.8,.3-1.1,.6v-.5h-1.5v.5c.6,0,.7,0,.7,.5v1.1q0,.7-.7,.7h0Z"/><polygon class="cls-1" points=".1 6.4 .1 17.4 3.2 17.4 3.2 13.2 6.1 13.2 6.1 10.6 3.2 10.6 3.2 8.9 6.4 8.9 6.4 6.4 .1 6.4"/><path class="cls-1" d="M17,0h1.4V1.7c.4-.3,.6-.4,1-.4,.8,0,1.3,.7,1.3,1.7,0,1.1-.5,1.8-1.5,1.8-.4,0-.7-.1-1-.5l-.2,.4h-.4V1.1c0-.5,0-.6-.6-.6V0h0Zm2.8,3c0-.8-.3-1.1-.7-1.1-.5,0-.7,.4-.7,1.2,0,.7,.3,1.1,.7,1.1s.7-.3,.7-1.2h0Z"/><path class="cls-1" d="M25,4.2v.5h2.2v-.5c-.6,0-.7,0-.7-.5v-.7c0-.7,.2-1.3,.8-1.3h.2c-.1,.2-.3,.3-.3,.5,0,.3,.2,.5,.5,.5s.5-.3,.5-.6c0-.4-.3-.8-.8-.8-.4,0-.6,.2-.9,.5v-.4h-1.5v.5c.5,0,.7,0,.7,.4v1.4c0,.4,0,.5-.7,.5h0Z"/><path class="cls-1" d="M22.3,3.1c0,.6,.3,1.1,.8,1.1s.7-.3,.8-.7h.6c-.1,.8-.7,1.3-1.5,1.3-1,0-1.7-.6-1.7-1.7,0-1,.6-1.8,1.6-1.8,.9,0,1.5,.7,1.5,1.8h-2.1Zm.7-1.3c-.4,0-.6,.3-.6,.8h1.3c-.1-.5-.3-.8-.7-.8h0Z"/><path class="cls-1" d="M7.7,3.1c0,.6,.3,1.1,.9,1.1,.5,0,.7-.3,.8-.7h.6c-.1,.8-.6,1.3-1.4,1.3-1,0-1.7-.6-1.7-1.7,0-1,.7-1.8,1.6-1.8s1.5,.7,1.5,1.8h-2.3Zm.7-1.3c-.4,0-.6,.3-.6,.8h1.2c0-.5-.2-.8-.6-.8h0Z"/><polygon class="cls-1" points="16.7 17.4 19.7 17.4 19.7 6.4 16.7 6.4 16.7 17.4"/></svg>