<svg width="40" height="44" viewBox="0 0 40 44" fill="none" xmlns="http://www.w3.org/2000/svg">
<path d="M0 13.2045L19.9557 2L39.4667 13.3157V17.2538H36.3536V31.1766H3.0574V17.2542H0V13.2045ZM19.9542 6.22115L7.11364 13.6542V27.6325H32.5167V13.6542L19.9542 6.22115ZM13.1249 18.9794V15.5401H26.4101V18.9794H13.1249ZM13.1249 20.6942H26.4101V24.1335H13.1249V20.6942ZM20.3439 41.9996V37.6177H22.6786C24.3463 37.6177 25.5137 38.117 25.5137 39.8922C25.5137 41.6119 24.4577 42 22.623 42H20.3439V41.9996ZM21.5662 38.5589V41.0548H22.5669C23.5116 41.0548 24.1789 40.8885 24.1789 39.89C24.1789 39.0026 23.4563 38.5589 22.6783 38.5589H21.5662ZM32.467 41.9996V37.6177H35.691C36.9137 37.6177 37.4144 38.0063 37.4144 39.0044C37.4144 39.7255 37.0251 40.0585 36.1914 40.1696L37.4697 42H36.1357L34.8574 40.1696H33.69V42H32.467V41.9996ZM35.5188 38.5596H33.6844V39.2252H35.4631C36.0745 39.2252 36.2415 39.2252 36.2415 38.8922C36.2415 38.6152 36.0192 38.5596 35.5188 38.5596ZM13.6761 37.6177V41.9996H14.8434V39.3374L17.1781 41.9996H18.5678V37.6177H17.4005V40.3355L15.0658 37.6177H13.6761ZM2.27421 37.6177V41.9996H6.66562V41.0567L3.49724 41.0011V37.6177H2.27421ZM7.89534 41.9996H12.1754V41.0567H9.17368V40.1137H11.675V39.2263H9.17368V38.5607H12.1754V37.6177H7.89534V41.9996ZM26.8514 37.6177V41.9996L31.0758 41.9444V41.0567H28.0741V40.1137H30.6311V39.2263H28.0741V38.5607H31.0758V37.6177H26.8514ZM10.9461 36.5059L12.0577 32.5677H13.0028L14.1144 36.5059H13.2485L13.0024 35.6185H12.0017L11.7556 36.5059H10.9461ZM12.5069 33.4081L12.1735 34.961H12.8962L12.5069 33.4081ZM4.77892 35.064V34.0099C4.77892 33.0114 5.11224 32.457 6.11294 32.457C7.22462 32.457 7.44695 33.1225 7.44695 34.0655V34.8977C7.44695 35.397 7.39128 35.6188 7.22462 35.9518L7.89163 36.1737L7.83595 36.4511C5.55728 36.4511 4.77892 36.3955 4.77892 35.064ZM5.61073 34.0651V35.0081C5.61073 35.7292 5.72209 35.9511 6.11108 35.9511C6.55575 35.9511 6.61143 35.7848 6.61143 35.0636V34.0096C6.61143 33.2329 6.55613 33.1221 6.16676 33.1221C5.66641 33.1218 5.61073 33.344 5.61073 34.0651ZM27.3473 35.4514C27.3473 36.0614 27.7363 36.5611 28.6257 36.5611C29.3483 36.5611 30.0153 36.0618 30.0153 35.4514C30.0153 34.5084 28.2367 34.0647 28.2367 33.4544C28.2367 33.2325 28.459 33.1218 28.6813 33.1218C29.0147 33.1218 29.1817 33.3436 29.3483 33.6766L29.9044 33.4547C29.8491 32.8999 29.4597 32.4562 28.626 32.4562C27.959 32.4562 27.4034 32.7888 27.4034 33.4547C27.4034 34.5644 29.1821 34.8414 29.1821 35.5625C29.1821 35.8399 29.0154 35.9511 28.6817 35.9511C28.348 35.9511 28.1257 35.7292 28.0147 35.3411L27.3473 35.4514ZM21.3506 35.2296V33.954C21.3506 32.8999 21.8509 32.4562 22.6846 32.4562C23.7409 32.4562 24.0186 32.8444 24.0186 33.8429V35.0633C24.0186 36.1174 23.7406 36.5611 22.6846 36.5611C21.6289 36.5607 21.3506 36.1725 21.3506 35.2296ZM22.1824 33.8984V35.1185C22.1824 35.6733 22.2377 35.9507 22.6827 35.9507C23.016 35.9507 23.1831 35.7288 23.1831 35.0633V33.8984C23.1831 33.4547 23.1278 33.0662 22.6827 33.0662C22.2377 33.0662 22.1824 33.3992 22.1824 33.8984ZM34.7412 35.0633C34.7412 36.2281 35.0749 36.5611 36.1866 36.5611C37.047 36.5611 37.2982 36.1585 37.2982 35.7288V34.4529H36.1309V35.0629H36.5199V35.5066C36.5199 35.8392 36.4089 36.0059 36.1309 36.0059C35.5749 36.0059 35.5196 35.6173 35.5196 35.0629V34.1755C35.5196 33.5099 35.5749 33.0662 36.1309 33.0662C36.5199 33.0662 36.7422 33.3436 36.7979 33.7318L37.3535 33.5099C37.2982 32.8444 36.8532 32.4558 36.0752 32.4558C34.9635 32.4558 34.7412 33.0658 34.7412 33.8981V35.0633ZM24.3515 32.567V34.841C24.3515 36.1725 24.5802 36.5981 25.7475 36.5981C26.6369 36.5981 26.9639 36.117 26.9639 34.9522V32.567H26.1855V34.841C26.1855 35.7285 26.1299 35.9507 25.6852 35.9507C25.2405 35.9507 25.1848 35.6177 25.1848 34.7859V32.567H24.3515ZM31.7406 32.5677V36.5059H32.4076V33.8433L33.3526 36.5059H34.3533V32.5677H33.6859V35.0081L32.7966 32.5677H31.7406ZM8.23051 32.567V34.9522C8.23051 36.0614 8.34187 36.5607 9.45355 36.5607C10.7319 36.5607 10.7876 35.9507 10.7876 34.841V32.567H10.0092V34.8966C10.0092 35.6733 9.89822 35.8951 9.50885 35.8951C9.06418 35.8951 9.0085 35.6733 9.0085 34.7859V32.567H8.23051ZM18.2898 32.5677V36.5059H19.0682V34.731H20.0132V36.5059H20.7912V32.5677H20.0132V34.0651H19.0682V32.5677H18.2898ZM2.2241 32.5677V36.5059H4.2255V35.8959H3.00246V34.7862H4.11414V34.2314H3.00246V33.1777H4.2255V32.5677H2.2241ZM14.4526 32.5677V36.5059H16.2869V35.8959H15.1196V32.5677H14.4526ZM30.4133 32.5677H31.1359V36.5059H30.4133V32.5677Z" fill="white"/>
</svg>
