<svg width="40" height="16" viewBox="0 0 40 16" fill="none" xmlns="http://www.w3.org/2000/svg">
<path d="M39.3715 5.44955C38.5472 4.38299 37.24 3.79845 35.9235 3.79506C33.471 3.7993 31.8394 5.65372 31.8555 8.00118C31.8394 10.4079 33.4922 12.1404 35.9235 12.1387C37.2392 12.1412 38.5277 11.516 39.3715 10.5528V15.2418C38.0457 15.6662 37.0969 15.9678 35.8541 16C33.7523 15.9704 31.7369 15.1588 30.2002 13.7245C28.4957 12.22 27.7307 10.2461 27.718 8.00118C27.7299 5.91549 28.5152 3.92044 29.9935 2.4159C31.4557 0.898644 33.6117 -0.0281416 35.716 0.00235588C37.0155 -0.0289888 38.1846 0.25396 39.3706 0.760558V5.44955H39.3715ZM9.30852 15.8602V0.622472H14.8938C19.1389 0.653817 22.6241 3.97805 22.6165 8.2765C22.6241 12.519 19.1194 15.8424 14.8938 15.8611H9.30852V15.8602ZM3.92994 4.00007V6.55255H8.27415V9.86237H3.92994V15.8602H0V0.622472H8.68756V4.00007H3.92994ZM23.168 0.690244H27.0979V15.9288H23.168V0.690244ZM13.2385 12.4826H14.1348C16.5 12.4996 18.5145 11.2102 18.5476 8.2765C18.5145 5.52834 16.7211 3.99838 14.2034 4.00007H13.2385V12.4826Z" fill="#013155"/>
</svg>
