<svg width="193" height="56" viewBox="0 0 193 56" fill="none" xmlns="http://www.w3.org/2000/svg">
<path d="M186.133 56H6.76072C3.03367 56 0 53.0208 0 49.3738V6.6164C0 2.968 3.03367 0 6.76072 0H186.133C189.859 0 193 2.968 193 6.6164V49.3738C193 53.0208 189.859 56 186.133 56Z" fill="#A6A6A6"/>
<path d="M191.616 49.3753C191.616 52.3377 189.166 54.7373 186.135 54.7373H6.76081C3.73142 54.7373 1.27246 52.3377 1.27246 49.3753V6.61509C1.27246 3.65409 3.73142 1.24609 6.76081 1.24609H186.134C189.166 1.24609 191.615 3.65409 191.615 6.61509L191.616 49.3753Z" fill="black"/>
<path d="M43.0723 27.6976C43.0308 23.1854 46.8451 20.9902 47.0195 20.888C44.8593 17.8038 41.5111 17.3824 40.3345 17.3488C37.5225 17.059 34.7947 18.9966 33.3622 18.9966C31.9012 18.9966 29.6952 17.3768 27.3178 17.4244C24.2584 17.4706 21.3962 19.2052 19.8265 21.8988C16.587 27.391 19.003 35.462 22.1068 39.9014C23.6593 42.0756 25.4735 44.5032 27.8482 44.4178C30.1713 44.324 31.0391 42.9674 33.8426 42.9674C36.6204 42.9674 37.4353 44.4178 39.857 44.3632C42.3503 44.324 43.9201 42.1792 45.4183 39.9854C47.2125 37.4934 47.933 35.0392 47.9616 34.9132C47.903 34.8936 43.1195 33.1058 43.0723 27.6976Z" fill="white"/>
<path d="M38.4976 14.4282C39.7471 12.898 40.6021 10.8162 40.3647 8.70361C38.5563 8.78201 36.2946 9.92861 34.9922 11.4252C33.8399 12.744 32.8106 14.9056 33.0765 16.9384C35.108 17.0868 37.1938 15.9346 38.4976 14.4282Z" fill="white"/>
<path d="M76.6927 44.1058H73.4461L71.6676 38.6332H65.4859L63.7918 44.1058H60.6309L66.7554 25.4746H70.5382L76.6927 44.1058ZM71.1315 36.3372L69.5232 31.4722C69.353 30.9752 69.0342 29.8048 68.5639 27.9624H68.5067C68.3194 28.7548 68.0177 29.9252 67.6032 31.4722L66.0234 36.3372H71.1315Z" fill="white"/>
<path d="M92.4427 37.2232C92.4427 39.508 91.8122 41.314 90.5513 42.6398C89.4219 43.82 88.0194 44.4094 86.3453 44.4094C84.5382 44.4094 83.2401 43.7738 82.4495 42.5026H82.3924V49.5796H79.3444V35.0938C79.3444 33.6574 79.3058 32.1832 79.2314 30.6712H81.912L82.0821 32.8006H82.1393C83.1558 31.1962 84.6984 30.3954 86.7685 30.3954C88.3868 30.3954 89.7378 31.0212 90.8186 32.2742C91.9023 33.5286 92.4427 35.1778 92.4427 37.2232ZM89.3375 37.3324C89.3375 36.0248 89.0373 34.9468 88.434 34.0984C87.7749 33.2136 86.89 32.7712 85.7806 32.7712C85.0286 32.7712 84.3452 33.0176 83.7348 33.5034C83.1229 33.9934 82.7226 34.6332 82.5353 35.4256C82.441 35.7952 82.3938 36.0976 82.3938 36.3356V38.5756C82.3938 39.5528 82.6997 40.3774 83.3116 41.0508C83.9235 41.7242 84.7184 42.0602 85.6962 42.0602C86.8442 42.0602 87.7377 41.6262 88.3768 40.761C89.0173 39.8944 89.3375 38.752 89.3375 37.3324Z" fill="white"/>
<path d="M108.221 37.2232C108.221 39.508 107.591 41.314 106.329 42.6398C105.201 43.82 103.798 44.4094 102.124 44.4094C100.317 44.4094 99.019 43.7738 98.2298 42.5026H98.1726V49.5796H95.1247V35.0938C95.1247 33.6574 95.0861 32.1832 95.0117 30.6712H97.6923L97.8624 32.8006H97.9196C98.9346 31.1962 100.477 30.3954 102.549 30.3954C104.166 30.3954 105.517 31.0212 106.6 32.2742C107.68 33.5286 108.221 35.1778 108.221 37.2232ZM105.116 37.3324C105.116 36.0248 104.815 34.9468 104.211 34.0984C103.552 33.2136 102.67 32.7712 101.559 32.7712C100.806 32.7712 100.124 33.0176 99.5122 33.5034C98.9003 33.9934 98.5014 34.6332 98.3142 35.4256C98.2212 35.7952 98.1726 36.0976 98.1726 36.3356V38.5756C98.1726 39.5528 98.4786 40.3774 99.0876 41.0508C99.6995 41.7228 100.494 42.0602 101.475 42.0602C102.623 42.0602 103.517 41.6262 104.156 40.761C104.796 39.8944 105.116 38.752 105.116 37.3324Z" fill="white"/>
<path d="M125.864 38.8808C125.864 40.4656 125.302 41.755 124.174 42.7504C122.934 43.8382 121.209 44.3814 118.991 44.3814C116.944 44.3814 115.303 43.995 114.061 43.2208L114.767 40.733C116.105 41.5254 117.573 41.923 119.173 41.923C120.321 41.923 121.214 41.6682 121.856 41.1614C122.495 40.6546 122.814 39.9742 122.814 39.1258C122.814 38.3698 122.551 37.7328 122.024 37.2162C121.499 36.6996 120.623 36.2194 119.399 35.7756C116.068 34.559 114.404 32.7768 114.404 30.4332C114.404 28.9016 114.987 27.6458 116.155 26.6686C117.319 25.69 118.871 25.2014 120.813 25.2014C122.544 25.2014 123.982 25.4968 125.13 26.0862L124.368 28.5194C123.296 27.9482 122.084 27.6626 120.727 27.6626C119.655 27.6626 118.817 27.9216 118.216 28.4368C117.709 28.8974 117.454 29.4588 117.454 30.1238C117.454 30.8602 117.745 31.4692 118.328 31.948C118.836 32.3904 119.758 32.8692 121.096 33.3858C122.733 34.0312 123.935 34.7858 124.708 35.651C125.479 36.5134 125.864 37.5928 125.864 38.8808Z" fill="white"/>
<path d="M135.941 32.9111H132.581V39.4337C132.581 41.0927 133.173 41.9215 134.36 41.9215C134.904 41.9215 135.356 41.8753 135.713 41.7829L135.798 44.0495C135.197 44.2693 134.407 44.3799 133.427 44.3799C132.224 44.3799 131.283 44.0201 130.604 43.3019C129.928 42.5823 129.587 41.3755 129.587 39.6801V32.9083H127.586V30.6683H129.587V28.2085L132.581 27.3237V30.6683H135.941V32.9111Z" fill="white"/>
<path d="M151.099 37.2777C151.099 39.3427 150.496 41.0381 149.292 42.3639C148.03 43.7289 146.354 44.4093 144.266 44.4093C142.253 44.4093 140.65 43.7555 139.455 42.4479C138.26 41.1403 137.662 39.4897 137.662 37.5003C137.662 35.4185 138.277 33.7133 139.511 32.3875C140.742 31.0603 142.403 30.3967 144.491 30.3967C146.504 30.3967 148.124 31.0505 149.346 32.3595C150.516 33.6293 151.099 35.2687 151.099 37.2777ZM147.937 37.3743C147.937 36.1353 147.667 35.0727 147.119 34.1865C146.48 33.1141 145.567 32.5793 144.383 32.5793C143.158 32.5793 142.227 33.1155 141.588 34.1865C141.04 35.0741 140.77 36.1535 140.77 37.4303C140.77 38.6693 141.04 39.7319 141.588 40.6167C142.247 41.6891 143.168 42.2239 144.356 42.2239C145.519 42.2239 146.433 41.6779 147.092 40.5887C147.654 39.6857 147.937 38.6119 147.937 37.3743Z" fill="white"/>
<path d="M161.007 33.2962C160.705 33.2416 160.383 33.2136 160.046 33.2136C158.974 33.2136 158.145 33.6098 157.561 34.4036C157.054 35.1036 156.799 35.9884 156.799 37.0566V44.1056H153.753L153.781 34.902C153.781 33.3536 153.743 31.9438 153.667 30.6726H156.322L156.433 33.243H156.518C156.839 32.3596 157.347 31.6484 158.042 31.115C158.721 30.6348 159.454 30.3954 160.245 30.3954C160.526 30.3954 160.781 30.415 161.007 30.45V33.2962Z" fill="white"/>
<path d="M174.638 36.753C174.638 37.2878 174.602 37.7386 174.527 38.1068H165.383C165.418 39.434 165.86 40.449 166.709 41.149C167.48 41.7748 168.476 42.0884 169.7 42.0884C171.054 42.0884 172.289 41.877 173.4 41.4528L173.878 43.5248C172.579 44.0792 171.047 44.355 169.278 44.355C167.151 44.355 165.481 43.7418 164.266 42.5168C163.054 41.2918 162.446 39.6468 162.446 37.5832C162.446 35.5574 163.011 33.8704 164.142 32.525C165.326 31.0886 166.925 30.3704 168.938 30.3704C170.915 30.3704 172.412 31.0886 173.429 32.525C174.234 33.666 174.638 35.0772 174.638 36.753ZM171.732 35.9788C171.752 35.094 171.553 34.3296 171.14 33.6842C170.612 32.854 169.802 32.4396 168.711 32.4396C167.714 32.4396 166.904 32.8442 166.285 33.6562C165.777 34.3016 165.476 35.0758 165.383 35.9774H171.732V35.9788Z" fill="white"/>
<path d="M70.1233 14.0124C70.1233 15.6602 69.6186 16.9006 68.6107 17.7336C67.6772 18.5022 66.3505 18.8872 64.6321 18.8872C63.78 18.8872 63.0509 18.8508 62.4404 18.778V9.77463C63.2367 9.64863 64.0945 9.58423 65.0209 9.58423C66.6578 9.58423 67.8916 9.93283 68.7237 10.63C69.6558 11.4182 70.1233 12.5452 70.1233 14.0124ZM68.5435 14.053C68.5435 12.9848 68.2547 12.1658 67.6772 11.5946C67.0996 11.0248 66.2561 10.7392 65.1453 10.7392C64.6735 10.7392 64.2718 10.77 63.9387 10.8344V17.679C64.1231 17.707 64.4605 17.7196 64.9509 17.7196C66.0974 17.7196 66.9824 17.4074 67.6057 16.783C68.229 16.1586 68.5435 15.2486 68.5435 14.053Z" fill="white"/>
<path d="M78.499 15.4516C78.499 16.4666 78.2031 17.2982 77.6112 17.9506C76.9908 18.6212 76.1687 18.9558 75.1423 18.9558C74.153 18.9558 73.3652 18.6352 72.7777 17.9912C72.1915 17.3486 71.8984 16.538 71.8984 15.5608C71.8984 14.5388 72.2001 13.7002 72.8063 13.0492C73.4124 12.3982 74.2273 12.072 75.2538 12.072C76.2431 12.072 77.038 12.3926 77.6398 13.0352C78.2117 13.6596 78.499 14.466 78.499 15.4516ZM76.945 15.4992C76.945 14.8902 76.8107 14.368 76.5433 13.9326C76.2288 13.4062 75.7813 13.143 75.1995 13.143C74.5976 13.143 74.1401 13.4062 73.8256 13.9326C73.5568 14.368 73.4239 14.8986 73.4239 15.5258C73.4239 16.1348 73.5582 16.657 73.8256 17.0924C74.1501 17.6188 74.6019 17.882 75.1852 17.882C75.757 17.882 76.2059 17.6146 76.529 17.0784C76.8064 16.6346 76.945 16.1082 76.945 15.4992Z" fill="white"/>
<path d="M89.7302 12.2065L87.6215 18.8061H86.249L85.3755 15.9403C85.1539 15.2249 84.9738 14.5137 84.8337 13.8081H84.8065C84.6764 14.5333 84.4963 15.2431 84.2647 15.9403L83.3369 18.8061H81.9487L79.9658 12.2065H81.5055L82.2675 15.3439C82.4519 16.0859 82.6035 16.7929 82.725 17.4621H82.7522C82.8637 16.9105 83.0481 16.2077 83.3083 15.3579L84.2647 12.2079H85.4856L86.402 15.2907C86.6236 16.0425 86.8037 16.7663 86.9424 17.4635H86.9839C87.0854 16.7845 87.2383 16.0607 87.4413 15.2907L88.2591 12.2079H89.7302V12.2065Z" fill="white"/>
<path d="M97.4981 18.8061H95.9998V15.0261C95.9998 13.8613 95.548 13.2789 94.6416 13.2789C94.197 13.2789 93.8382 13.4385 93.5594 13.7591C93.2835 14.0797 93.1434 14.4577 93.1434 14.8903V18.8047H91.6451V14.0923C91.6451 13.5127 91.6266 12.8841 91.5908 12.2037H92.9075L92.9776 13.2355H93.019C93.1934 12.9149 93.4536 12.6503 93.7953 12.4389C94.2013 12.1925 94.6559 12.0679 95.1535 12.0679C95.7825 12.0679 96.3057 12.2667 96.7218 12.6657C97.2393 13.1543 97.4981 13.8837 97.4981 14.8525V18.8061Z" fill="white"/>
<path d="M101.63 18.806H100.133V9.17822H101.63V18.806Z" fill="white"/>
<path d="M110.45 15.4516C110.45 16.4666 110.154 17.2982 109.562 17.9506C108.942 18.6212 108.119 18.9558 107.093 18.9558C106.103 18.9558 105.315 18.6352 104.729 17.9912C104.143 17.3486 103.85 16.538 103.85 15.5608C103.85 14.5388 104.151 13.7002 104.757 13.0492C105.364 12.3982 106.178 12.072 107.204 12.072C108.194 12.072 108.988 12.3926 109.591 13.0352C110.163 13.6596 110.45 14.466 110.45 15.4516ZM108.895 15.4992C108.895 14.8902 108.76 14.368 108.493 13.9326C108.18 13.4062 107.731 13.143 107.151 13.143C106.547 13.143 106.09 13.4062 105.777 13.9326C105.508 14.368 105.375 14.8986 105.375 15.5258C105.375 16.1348 105.509 16.657 105.777 17.0924C106.101 17.6188 106.553 17.882 107.136 17.882C107.708 17.882 108.156 17.6146 108.479 17.0784C108.758 16.6346 108.895 16.1082 108.895 15.4992Z" fill="white"/>
<path d="M117.702 18.806H116.356L116.245 18.0458H116.203C115.743 18.652 115.087 18.9558 114.235 18.9558C113.599 18.9558 113.084 18.7556 112.696 18.358C112.345 17.9968 112.169 17.5474 112.169 17.014C112.169 16.2076 112.512 15.593 113.203 15.1674C113.892 14.7418 114.861 14.5332 116.109 14.543V14.4198C116.109 13.5504 115.643 13.1164 114.709 13.1164C114.045 13.1164 113.458 13.2802 112.952 13.605L112.648 12.6418C113.274 12.2624 114.047 12.072 114.96 12.072C116.721 12.072 117.604 12.982 117.604 14.802V17.2324C117.604 17.8918 117.637 18.4168 117.702 18.806ZM116.146 16.538V15.5202C114.494 15.4922 113.667 15.936 113.667 16.8502C113.667 17.1946 113.762 17.4522 113.955 17.6244C114.148 17.7966 114.393 17.882 114.687 17.882C115.015 17.882 115.323 17.7798 115.603 17.5768C115.885 17.3724 116.058 17.1134 116.122 16.7956C116.138 16.7242 116.146 16.6374 116.146 16.538Z" fill="white"/>
<path d="M126.215 18.806H124.885L124.815 17.7462H124.774C124.349 18.5526 123.626 18.9558 122.609 18.9558C121.797 18.9558 121.121 18.6436 120.585 18.0192C120.049 17.3948 119.781 16.5842 119.781 15.5888C119.781 14.5206 120.071 13.6554 120.655 12.9946C121.219 12.3786 121.911 12.0706 122.735 12.0706C123.64 12.0706 124.273 12.3688 124.633 12.9666H124.662V9.17822H126.162V17.028C126.162 17.6706 126.179 18.2628 126.215 18.806ZM124.662 16.0228V14.9224C124.662 14.732 124.648 14.578 124.621 14.4604C124.536 14.1076 124.355 13.8108 124.079 13.5714C123.8 13.332 123.464 13.2116 123.077 13.2116C122.518 13.2116 122.08 13.4286 121.758 13.864C121.44 14.2994 121.278 14.8552 121.278 15.5342C121.278 16.1866 121.431 16.7158 121.738 17.1232C122.063 17.5572 122.5 17.7742 123.048 17.7742C123.54 17.7742 123.933 17.5936 124.232 17.231C124.52 16.8964 124.662 16.4932 124.662 16.0228Z" fill="white"/>
<path d="M139.028 15.4516C139.028 16.4666 138.732 17.2982 138.141 17.9506C137.52 18.6212 136.699 18.9558 135.672 18.9558C134.684 18.9558 133.896 18.6352 133.307 17.9912C132.721 17.3486 132.428 16.538 132.428 15.5608C132.428 14.5388 132.729 13.7002 133.336 13.0492C133.942 12.3982 134.757 12.072 135.784 12.072C136.772 12.072 137.569 12.3926 138.169 13.0352C138.741 13.6596 139.028 14.466 139.028 15.4516ZM137.476 15.4992C137.476 14.8902 137.341 14.368 137.074 13.9326C136.758 13.4062 136.312 13.143 135.729 13.143C135.128 13.143 134.671 13.4062 134.355 13.9326C134.086 14.368 133.953 14.8986 133.953 15.5258C133.953 16.1348 134.088 16.657 134.355 17.0924C134.679 17.6188 135.131 17.882 135.714 17.882C136.286 17.882 136.737 17.6146 137.06 17.0784C137.336 16.6346 137.476 16.1082 137.476 15.4992Z" fill="white"/>
<path d="M147.085 18.8061H145.588V15.0261C145.588 13.8613 145.136 13.2789 144.228 13.2789C143.783 13.2789 143.425 13.4385 143.147 13.7591C142.87 14.0797 142.731 14.4577 142.731 14.8903V18.8047H141.232V14.0923C141.232 13.5127 141.214 12.8841 141.179 12.2037H142.494L142.564 13.2355H142.605C142.781 12.9149 143.042 12.6503 143.382 12.4389C143.789 12.1925 144.242 12.0679 144.741 12.0679C145.369 12.0679 145.892 12.2667 146.308 12.6657C146.827 13.1543 147.085 13.8837 147.085 14.8525V18.8061Z" fill="white"/>
<path d="M157.168 13.3053H155.518V16.5113C155.518 17.3261 155.811 17.7335 156.392 17.7335C156.66 17.7335 156.883 17.7111 157.059 17.6649L157.098 18.7779C156.802 18.8871 156.413 18.9417 155.934 18.9417C155.342 18.9417 154.882 18.7653 154.549 18.4125C154.214 18.0597 154.048 17.4661 154.048 16.6331V13.3053H153.063V12.2063H154.048V10.9967L155.517 10.5627V12.2049H157.167V13.3053H157.168Z" fill="white"/>
<path d="M165.099 18.806H163.599V15.054C163.599 13.871 163.148 13.2788 162.243 13.2788C161.548 13.2788 161.073 13.6218 160.813 14.3078C160.769 14.452 160.743 14.6284 160.743 14.8356V18.8046H159.246V9.17822H160.743V13.1556H160.772C161.243 12.4318 161.92 12.0706 162.796 12.0706C163.416 12.0706 163.93 12.2694 164.337 12.6684C164.845 13.1654 165.099 13.9046 165.099 14.8818V18.806Z" fill="white"/>
<path d="M173.281 15.1939C173.281 15.4571 173.261 15.6783 173.225 15.8589H168.732C168.752 16.5113 168.966 17.0083 169.382 17.3527C169.762 17.6607 170.253 17.8147 170.853 17.8147C171.518 17.8147 172.124 17.7111 172.67 17.5025L172.905 18.5217C172.266 18.7933 171.514 18.9291 170.643 18.9291C169.599 18.9291 168.777 18.6281 168.183 18.0261C167.585 17.4241 167.289 16.6163 167.289 15.6027C167.289 14.6073 167.565 13.7785 168.121 13.1177C168.702 12.4121 169.486 12.0593 170.477 12.0593C171.446 12.0593 172.183 12.4121 172.68 13.1177C173.082 13.6777 173.281 14.3707 173.281 15.1939ZM171.851 14.8145C171.862 14.3791 171.764 14.0039 171.561 13.6875C171.301 13.2801 170.905 13.0757 170.368 13.0757C169.88 13.0757 169.481 13.2745 169.176 13.6735C168.927 13.9913 168.78 14.3707 168.732 14.8145H171.851Z" fill="white"/>
</svg>
