<svg width="192" height="56" viewBox="0 0 192 56" fill="none" xmlns="http://www.w3.org/2000/svg">
<path fill-rule="evenodd" clip-rule="evenodd" d="M184.886 56H7.11373C3.19305 56 0 52.8439 0 49V7C0 3.14214 3.19305 0 7.11373 0H184.886C188.803 0 192 3.14214 192 7V49C192 52.8439 188.803 56 184.886 56Z" fill="black"/>
<path fill-rule="evenodd" clip-rule="evenodd" d="M184.886 1.1207C188.175 1.1207 190.866 3.76359 190.866 7V49C190.866 52.2364 188.192 54.8793 184.886 54.8793H7.11373C3.82531 54.8793 1.13382 52.2364 1.13382 49V7C1.13382 3.76359 3.80765 1.1207 7.11373 1.1207H184.886ZM184.886 0H7.11373C3.19305 0 0 3.15611 0 7V49C0 52.8579 3.19305 56 7.11373 56H184.886C188.803 56 192 52.8579 192 49V7C192 3.15611 188.803 0 184.886 0Z" fill="#A6A6A6"/>
<path d="M101.147 18.525C99.8651 18.525 98.7843 18.0816 97.9295 17.2088C97.0818 16.3604 96.6085 15.1909 96.6297 13.9969C96.6297 12.7225 97.0676 11.6437 97.9295 10.7884C98.7807 9.91556 99.8616 9.47217 101.144 9.47217C102.412 9.47217 103.493 9.91556 104.362 10.7884C105.223 11.6717 105.661 12.7505 105.661 13.9969C105.647 15.2747 105.209 16.3535 104.362 17.2053C103.51 18.0851 102.429 18.525 101.147 18.525ZM62.9966 18.525C61.7427 18.525 60.6548 18.0886 59.7647 17.2263C58.8817 16.3674 58.4331 15.2816 58.4331 14.0003C58.4331 12.7191 58.8817 11.6333 59.7647 10.7744C60.6372 9.91207 61.7251 9.47566 62.9966 9.47566C63.6183 9.47566 64.2223 9.59785 64.8015 9.84573C65.3702 10.0866 65.8329 10.4148 66.1756 10.8163L66.2603 10.9176L65.3031 11.8462L65.2042 11.731C64.6638 11.0956 63.9397 10.7849 62.9825 10.7849C62.1277 10.7849 61.3824 11.0851 60.7678 11.6787C60.1497 12.2757 59.8354 13.0577 59.8354 14.0038C59.8354 14.95 60.1497 15.732 60.7678 16.329C61.3824 16.9225 62.1277 17.2228 62.9825 17.2228C63.8938 17.2228 64.6603 16.9225 65.2572 16.329C65.6104 15.9799 65.8294 15.4911 65.9071 14.8732H62.8377V13.5674H67.2246L67.2423 13.6861C67.274 13.9061 67.3058 14.133 67.3058 14.3425C67.3058 15.547 66.9385 16.521 66.2109 17.2402C65.3844 18.0921 64.3035 18.525 62.9966 18.525ZM113.722 18.34H112.369L108.226 11.7869L108.261 12.9669V18.3365H106.908V9.6607H108.452L108.494 9.72703L112.39 15.8996L112.355 14.723V9.6607H113.722V18.34ZM90.9818 18.34H89.6113V10.9664H87.2342V9.6607H93.3554V10.9664H90.9782V18.34H90.9818ZM86.118 18.34H84.7511V9.6607H86.118V18.34ZM78.4356 18.34H77.0687V10.9664H74.6915V9.6607H80.8127V10.9664H78.4356V18.34ZM73.8262 18.326H68.5845V9.6607H73.8262V10.9664H69.9549V13.3475H73.4482V14.6392H69.9549V17.0203H73.8262V18.326ZM98.9326 16.3116C99.5437 16.9156 100.285 17.2193 101.147 17.2193C102.034 17.2193 102.758 16.9225 103.362 16.3116C103.962 15.7181 104.266 14.9395 104.266 14.0003C104.266 13.0612 103.962 12.2792 103.365 11.6891C102.754 11.0851 102.009 10.7814 101.151 10.7814C100.264 10.7814 99.5401 11.0782 98.9397 11.6891C98.3392 12.2826 98.0354 13.0612 98.0354 14.0003C98.0354 14.9395 98.3357 15.7215 98.9326 16.3116Z" fill="white"/>
<path fill-rule="evenodd" clip-rule="evenodd" d="M96.5011 30.4585C93.1633 30.4585 90.4576 32.9618 90.4576 36.4146C90.4576 39.8361 93.1809 42.3708 96.5011 42.3708C99.839 42.3708 102.545 39.8501 102.545 36.4146C102.545 32.9618 99.839 30.4585 96.5011 30.4585ZM96.5011 40.0107C94.675 40.0107 93.1032 38.5164 93.1032 36.4007C93.1032 34.2536 94.6786 32.7907 96.5011 32.7907C98.3273 32.7907 99.8991 34.2536 99.8991 36.4007C99.9026 38.5304 98.3273 40.0107 96.5011 40.0107ZM83.3156 30.4585C79.9777 30.4585 77.2721 32.9618 77.2721 36.4146C77.2721 39.8361 79.9954 42.3708 83.3156 42.3708C86.6535 42.3708 89.3591 39.8501 89.3591 36.4146C89.3591 32.9618 86.65 30.4585 83.3156 30.4585ZM83.3156 40.0107C81.4895 40.0107 79.9177 38.5164 79.9177 36.4007C79.9177 34.2536 81.493 32.7907 83.3156 32.7907C85.1417 32.7907 86.7135 34.2536 86.7135 36.4007C86.7135 38.5304 85.1417 40.0107 83.3156 40.0107ZM67.6257 32.2775V34.7982H73.747C73.5598 36.2122 73.0865 37.256 72.3624 37.9718C71.4652 38.8585 70.0806 39.8221 67.6399 39.8221C63.8781 39.8221 60.9358 36.8196 60.9358 33.1014C60.9358 29.3832 63.8781 26.3807 67.6399 26.3807C69.6709 26.3807 71.1508 27.1733 72.2493 28.1857L74.0578 26.3982C72.5319 24.9528 70.5009 23.8461 67.654 23.8461C62.4935 23.8461 58.1631 28.0007 58.1631 33.0875C58.1631 38.1882 62.49 42.3289 67.654 42.3289C70.4409 42.3289 72.5319 41.4281 74.185 39.7314C75.8698 38.066 76.4032 35.7164 76.4032 33.8206C76.4032 33.2306 76.3572 32.6999 76.2619 32.2496H67.6222C67.6257 32.2461 67.6257 32.2775 67.6257 32.2775ZM131.802 34.2396C131.296 32.9024 129.771 30.4446 126.641 30.4446C123.54 30.4446 120.961 32.857 120.961 36.4007C120.961 39.7453 123.512 42.3568 126.941 42.3568C129.696 42.3568 131.3 40.6915 131.96 39.7139L129.915 38.3593C129.237 39.3543 128.294 40.0072 126.955 40.0072C125.603 40.0072 124.656 39.3997 124.027 38.2022L132.084 34.9029C132.084 34.9064 131.802 34.2396 131.802 34.2396ZM123.586 36.2296C123.522 33.9289 125.394 32.7593 126.733 32.7593C127.789 32.7593 128.669 33.2725 128.969 34.0196L123.586 36.2296ZM117.041 42.0007H119.686V24.5024H117.041V42.0007ZM112.696 31.7817H112.601C112.004 31.08 110.87 30.4446 109.422 30.4446C106.416 30.4446 103.647 33.0595 103.647 36.4181C103.647 39.7628 106.402 42.3463 109.422 42.3463C110.852 42.3463 112.004 41.7074 112.601 40.9917H112.696V41.8471C112.696 44.1199 111.467 45.3453 109.485 45.3453C107.864 45.3453 106.857 44.1932 106.448 43.2296L104.148 44.1792C104.809 45.7503 106.571 47.695 109.482 47.695C112.583 47.695 115.211 45.89 115.211 41.4875V30.8007H112.71V31.7817C112.714 31.7817 112.696 31.7817 112.696 31.7817ZM109.658 40.0107C107.832 40.0107 106.306 38.5024 106.306 36.4181C106.306 34.3164 107.832 32.7942 109.658 32.7942C111.467 32.7942 112.869 34.3339 112.869 36.4181C112.887 38.5024 111.47 40.0107 109.658 40.0107ZM144.189 24.5024H137.863V42.0007H140.508V35.3743H144.192C147.121 35.3743 149.999 33.276 149.999 29.9453C149.999 26.6146 147.131 24.5024 144.189 24.5024ZM144.267 32.9304H140.505V26.9254H144.267C146.248 26.9254 147.368 28.5418 147.368 29.9279C147.368 31.2999 146.234 32.9304 144.267 32.9304ZM160.603 30.4271C158.681 30.4271 156.7 31.2685 155.88 33.1014L158.226 34.065C158.731 33.1014 159.656 32.7733 160.635 32.7733C162.005 32.7733 163.39 33.5832 163.421 35.0286V35.2137C162.948 34.9483 161.91 34.5433 160.666 34.5433C158.134 34.5433 155.566 35.9119 155.566 38.478C155.566 40.8276 157.643 42.3358 159.956 42.3358C161.733 42.3358 162.711 41.5433 163.323 40.6251H163.418V41.9797H165.968V35.2765C165.968 32.1553 163.623 30.4271 160.603 30.4271ZM160.271 40.0107C159.405 40.0107 158.194 39.5917 158.194 38.5164C158.194 37.1618 159.706 36.6486 160.995 36.6486C162.16 36.6486 162.711 36.8964 163.404 37.2386C163.213 38.8097 161.871 39.9967 160.271 40.0107ZM175.272 30.8007L172.234 38.3907H172.139L168.992 30.8007H166.145L170.867 41.4107L168.176 47.3074H170.931L178.196 30.8007H175.272ZM151.458 42.0007H154.104V24.5024H151.458V42.0007Z" fill="white"/>
<path fill-rule="evenodd" clip-rule="evenodd" d="M14.7782 10.5476C14.3685 10.984 14.1318 11.6509 14.1318 12.5237V43.4808C14.1318 44.3536 14.3685 45.0205 14.7923 45.4394L14.9018 45.5337L32.4495 28.189V27.8015L14.8877 10.4534L14.7782 10.5476Z" fill="url(#paint0_linear)"/>
<path fill-rule="evenodd" clip-rule="evenodd" d="M38.2889 33.987L32.436 28.202V27.797L38.2889 22.012L38.416 22.0888L45.3391 25.978C47.3206 27.0813 47.3206 28.9037 45.3391 30.0209L38.416 33.9102L38.2889 33.987Z" fill="url(#paint1_linear)"/>
<path fill-rule="evenodd" clip-rule="evenodd" d="M38.4159 33.9107L32.436 28L14.7788 45.4529C15.4252 46.1372 16.5096 46.214 17.7211 45.5471L38.4159 33.9107Z" fill="url(#paint2_linear)"/>
<path fill-rule="evenodd" clip-rule="evenodd" d="M38.4159 22.0897L17.7211 10.4707C16.5096 9.78642 15.4217 9.88068 14.7788 10.565L32.436 28.0004L38.4159 22.0897Z" fill="url(#paint3_linear)"/>
<path opacity="0.2" fill-rule="evenodd" clip-rule="evenodd" d="M38.289 33.7836L17.7353 45.3258C16.5873 45.9787 15.563 45.9333 14.9025 45.3398L14.793 45.448L14.9025 45.5423C15.563 46.1323 16.5873 46.1812 17.7353 45.5283L38.4303 33.9093L38.289 33.7836Z" fill="black"/>
<path opacity="0.12" fill-rule="evenodd" clip-rule="evenodd" d="M45.3388 29.819L38.271 33.785L38.3982 33.9107L45.3211 30.0214C46.3137 29.4628 46.8011 28.7297 46.8011 28C46.7411 28.6703 46.236 29.3057 45.3388 29.819Z" fill="black"/>
<path opacity="0.25" fill-rule="evenodd" clip-rule="evenodd" d="M17.7205 10.6737L45.3383 26.1819C46.2355 26.6812 46.7405 27.334 46.8183 28.0009C46.8183 27.2712 46.3308 26.538 45.3383 25.9794L17.7205 10.4712C15.739 9.35049 14.1318 10.2862 14.1318 12.5241V12.7266C14.1318 10.4852 15.739 9.56695 17.7205 10.6737Z" fill="white"/>
<defs>
<linearGradient id="paint0_linear" x1="30.8755" y1="12.1897" x2="2.81099" y2="19.7551" gradientUnits="userSpaceOnUse">
<stop stop-color="#00A0FF"/>
<stop offset="0.00657" stop-color="#00A1FF"/>
<stop offset="0.2601" stop-color="#00BEFF"/>
<stop offset="0.5122" stop-color="#00D2FF"/>
<stop offset="0.7604" stop-color="#00DFFF"/>
<stop offset="1" stop-color="#00E3FF"/>
</linearGradient>
<linearGradient id="paint1_linear" x1="47.9232" y1="27.9995" x2="13.6507" y2="27.9995" gradientUnits="userSpaceOnUse">
<stop stop-color="#FFE000"/>
<stop offset="0.4087" stop-color="#FFBD00"/>
<stop offset="0.7754" stop-color="#FFA500"/>
<stop offset="1" stop-color="#FF9C00"/>
</linearGradient>
<linearGradient id="paint2_linear" x1="35.1642" y1="31.2163" x2="12.985" y2="68.9827" gradientUnits="userSpaceOnUse">
<stop stop-color="#FF3A44"/>
<stop offset="1" stop-color="#C31162"/>
</linearGradient>
<linearGradient id="paint3_linear" x1="10.3325" y1="0.250693" x2="20.2275" y2="17.1176" gradientUnits="userSpaceOnUse">
<stop stop-color="#32A071"/>
<stop offset="0.0685" stop-color="#2DA771"/>
<stop offset="0.4762" stop-color="#15CF74"/>
<stop offset="0.8009" stop-color="#06E775"/>
<stop offset="1" stop-color="#00F076"/>
</linearGradient>
</defs>
</svg>
