<svg width="153" height="41" viewBox="0 0 153 41" fill="none" xmlns="http://www.w3.org/2000/svg">
<path d="M31.6159 5.88108L25.2719 12.1152L27.2479 3.69925L22.776 11.4918L23.0881 2.55609L20.3839 11.1802L18.2001 2.24449L17.9919 10.6606L13.6239 4.21858L16.016 12.1152L9.87997 6.40063L14.664 13.9854L6.09348 9.86607L12.6881 16.0636L3.22394 13.2581L11.024 18.765L2.07992 18.1416L9.776 20.6352L2.07992 23.025L11.128 23.1288L3.74398 27.3886L12.5839 24.9991L5.92807 31.6488L14.2479 27.4927L9.25597 35.0775L15.3196 29.7282L13.416 37.3636L17.4719 29.6747L18.0959 38.6102L20.3839 30.2982L23.0881 38.922L22.776 29.9866L27.2479 37.3636L25.064 28.9475L31.4079 35.1814L27.1439 27.5966L34.7358 31.7527L28.808 25.7263L37.2318 27.4927L29.8478 23.1288H38.688L29.8478 20.6352L37.44 18.4534L29.5359 18.1416L37.1279 13.7777L28.4959 15.9597L34.6319 9.72541L27.519 13.92L31.6159 5.88108ZM16.7439 4.63426L16.64 0.0626564L19.9811 0.032589L20.7954 3.97889L21.6883 0.054245L25.3788 0.411053L25.1387 4.57476L27.343 0.88665L30.3384 2.40786L29.0904 5.83672L32.0454 3.32499L34.4239 5.56927L32.344 8.7904L36.088 6.71222L38.064 9.51768L34.8398 12.2191L39.1038 11.1802L40.0214 14.5047L36.3999 16.2713L40.7241 16.5085L41.2117 20.808L37.0239 20.3234L41.2879 21.882L40.6639 24.6873L36.3999 24.4795L40.1439 26.9732L38.7919 29.7788L34.7358 28.4277L37.7519 31.4411L35.6719 34.1423L32.344 32.0645L34.216 35.5968L31.6159 37.6752L28.9119 34.558L30.1599 38.7143L26.936 40.1689L24.8559 36.2207L24.7519 40.8961H21.32L20.6958 36.6363L19.7599 41L16.2239 40.6882L16.536 36.3245L14.2479 40.1689L11.2124 38.8264L12.6881 34.4541L9.36709 37.7562L6.86395 35.5968L9.04805 32.0645L5.30407 34.2464L3.43208 31.6488L6.65582 28.7393L2.28805 29.6747L1.03985 26.8693L4.888 24.7911L0.416067 24.8952L0 21.3625L3.9519 20.5313L0 19.3884L0.416067 16.0636L4.5759 16.1675L1.03985 13.8815L2.49598 10.9722L6.34392 12.2191L3.53605 9.20587L5.512 6.8163L8.83991 8.99813L6.86395 5.36154L9.67204 3.17971L12.5839 6.29676L11.2319 2.24449L14.56 0.685856L16.7439 4.63426Z" fill="#FDB836"/>
<path d="M41.0378 33.3573C41.3388 33.347 41.5526 33.306 41.6793 33.2341C41.8742 33.1245 41.9718 32.9187 41.9718 32.617V27.5193C41.9718 27.2142 41.8759 27.0086 41.6844 26.9022C41.5682 26.8372 41.3525 26.7941 41.0378 26.7737V26.5109H47.0095V28.6265H46.7399C46.61 27.9749 46.3912 27.5187 46.0835 27.2573C45.7758 26.9962 45.2082 26.8656 44.3813 26.8656C44.0734 26.8656 43.8777 26.901 43.7942 26.9716C43.7102 27.0418 43.6685 27.1732 43.6685 27.3658V29.8092C44.2382 29.8195 44.6234 29.7011 44.8241 29.4545C45.0249 29.2073 45.1769 28.813 45.2798 28.2718H45.5496V31.7936H45.2798C45.2078 31.2263 45.0626 30.8134 44.8448 30.5537C44.6269 30.2943 44.2349 30.1641 43.6685 30.1641V32.617C43.6685 32.9425 43.7637 33.1491 43.9541 33.2366C44.1444 33.3241 44.435 33.3642 44.826 33.3573V33.6201H41.0378V33.3573Z" fill="#BB2125"/>
<path d="M50.4119 30.6634C50.4048 30.0391 50.3568 29.6026 50.2672 29.3541C50.1775 29.1056 49.9986 28.9813 49.7299 28.9813C49.4544 28.9813 49.2658 29.1245 49.1644 29.4109C49.0627 29.6974 49.0051 30.1146 48.9914 30.6634H50.4119ZM48.1757 29.3114C48.6052 28.8638 49.1231 28.6396 49.729 28.6396C50.0748 28.6396 50.3999 28.7311 50.7047 28.9138C51.0092 29.0965 51.2439 29.3501 51.4082 29.6741C51.5313 29.9188 51.6168 30.2361 51.665 30.6255C51.6888 30.8082 51.701 30.9478 51.701 31.0444H49.0177C49.0417 31.4649 49.1103 31.8288 49.2237 32.1362C49.43 32.7138 49.7924 33.0025 50.3111 33.0025C50.5586 33.0025 50.7922 32.9255 51.0122 32.772C51.1462 32.6795 51.3127 32.5243 51.512 32.3055L51.7536 32.4541C51.4278 32.9867 51.0507 33.3568 50.6222 33.5649C50.3442 33.698 50.0256 33.7646 49.6657 33.7646C49.1477 33.7646 48.6627 33.5605 48.2102 33.1524C47.7575 32.7441 47.5312 32.0923 47.5312 31.1972C47.5312 30.3877 47.7461 29.7591 48.1757 29.3114Z" fill="#BB2125"/>
<path d="M55.2205 32.8698C55.4002 32.6673 55.4901 32.5248 55.4901 32.4423V29.8776C55.4901 29.7919 55.413 29.6651 55.259 29.4967C55.1047 29.3282 54.9012 29.2441 54.648 29.2441C54.2747 29.2441 54.0215 29.5036 53.8881 30.0219C53.8161 30.2998 53.7801 30.6928 53.7801 31.2008C53.7801 31.7432 53.8144 32.152 53.883 32.4266C54.0095 32.9245 54.2526 33.1732 54.6123 33.1732C54.8381 33.1732 55.041 33.0723 55.2205 32.8698ZM52.8215 29.3627C53.217 28.8806 53.6922 28.6396 54.2469 28.6396C54.5245 28.6396 54.7707 28.7086 54.9867 28.8461C55.1203 28.9292 55.288 29.077 55.4901 29.2904V27.3518C55.4901 27.0947 55.4387 26.9353 55.3364 26.8733C55.2339 26.8117 55.022 26.774 54.7009 26.7604V26.5108H56.9765V32.5687C56.9765 32.7811 57.0178 32.9276 57.0998 33.0086C57.1821 33.0899 57.3429 33.1404 57.5828 33.1602V33.4097C56.9914 33.468 56.6095 33.5119 56.4375 33.5411C56.2656 33.5704 55.963 33.6446 55.5296 33.7646V33.0754C55.3308 33.2796 55.1489 33.4312 54.9846 33.5296C54.724 33.6862 54.4428 33.7646 54.1411 33.7646C53.6269 33.7646 53.1795 33.5468 52.7988 33.1112C52.4183 32.6755 52.228 32.0836 52.228 31.336C52.228 30.5023 52.4259 29.8448 52.8215 29.3627Z" fill="#BB2125"/>
<path d="M60.9344 30.6634C60.9275 30.0391 60.8793 29.6026 60.7898 29.3541C60.7002 29.1056 60.5211 28.9813 60.2526 28.9813C59.9769 28.9813 59.7885 29.1245 59.6869 29.4109C59.5854 29.6974 59.5278 30.1146 59.5139 30.6634H60.9344ZM58.6981 29.3114C59.1277 28.8638 59.6456 28.6396 60.2517 28.6396C60.5975 28.6396 60.9224 28.7311 61.2274 28.9138C61.5319 29.0965 61.7663 29.3501 61.9307 29.6741C62.0538 29.9188 62.1395 30.2361 62.1875 30.6255C62.2112 30.8082 62.2235 30.9478 62.2235 31.0444H59.5402C59.5642 31.4649 59.633 31.8288 59.7464 32.1362C59.9525 32.7138 60.3151 33.0025 60.8338 33.0025C61.0811 33.0025 61.3149 32.9255 61.5348 32.772C61.6687 32.6795 61.8352 32.5243 62.0347 32.3055L62.2761 32.4541C61.9503 32.9867 61.5732 33.3568 61.1447 33.5649C60.8669 33.698 60.548 33.7646 60.1882 33.7646C59.6702 33.7646 59.1853 33.5605 58.7327 33.1524C58.2802 32.7441 58.054 32.0923 58.054 31.1972C58.054 30.3877 58.2686 29.7591 58.6981 29.3114Z" fill="#BB2125"/>
<path d="M62.6719 33.3705C62.876 33.3462 63.0179 33.2982 63.0972 33.2255C63.1768 33.1527 63.2201 33.0127 63.2273 32.8054L63.2374 32.495V29.6122C63.2374 29.3986 63.1993 29.2533 63.1233 29.1764C63.0471 29.0996 62.8966 29.0475 62.6719 29.0208V28.7712H64.6712V29.5851C64.8947 29.2956 65.1165 29.066 65.3369 28.8954C65.557 28.7251 65.8116 28.6398 66.1006 28.6398C66.3172 28.6398 66.5122 28.7092 66.6861 28.8479C66.8597 28.9863 66.9466 29.1892 66.9466 29.4556C66.9466 29.661 66.8856 29.8307 66.7635 29.964C66.6415 30.0975 66.4824 30.1641 66.2866 30.1641C66.0629 30.1641 65.8695 30.059 65.7064 29.8488C65.5431 29.6385 65.4288 29.5334 65.3634 29.5334C65.2224 29.5334 65.0803 29.6204 64.9378 29.7945C64.7951 29.9686 64.7238 30.2175 64.7238 30.5415V32.5426C64.7238 32.8924 64.7739 33.1109 64.8743 33.1983C64.9745 33.2858 65.1744 33.3434 65.4734 33.3705V33.6201H62.6719V33.3705Z" fill="#BB2125"/>
<path d="M69.947 32.8612C70.028 32.7992 70.1242 32.7031 70.236 32.5725V31.0313C69.9586 31.1003 69.7153 31.2081 69.5057 31.3562C69.1504 31.607 68.9732 31.9264 68.9732 32.3145C68.9732 32.545 69.0246 32.7195 69.1279 32.8376C69.2311 32.9564 69.3466 33.0155 69.4752 33.0155C69.6442 33.0155 69.8016 32.9642 69.947 32.8612ZM68.1081 31.5031C68.566 31.225 69.2841 30.9449 70.2623 30.6634V29.897C70.2623 29.585 70.1954 29.3545 70.0613 29.205C69.9274 29.056 69.6898 28.9813 69.3491 28.9813C69.1578 28.9813 69.0012 29.0166 68.8792 29.0869C68.7571 29.1571 68.6963 29.2452 68.6963 29.3516C68.6963 29.3928 68.7032 29.4273 68.7169 29.4548C68.7304 29.4821 68.751 29.5114 68.7786 29.5423L68.8402 29.614C68.8882 29.6724 68.9265 29.7368 68.9556 29.807C68.9848 29.8772 68.9995 29.9521 68.9995 30.0309C68.9995 30.2296 68.9339 30.3833 68.8028 30.4912C68.6712 30.5992 68.5187 30.6531 68.3448 30.6531C68.1434 30.6531 67.9721 30.5936 67.8307 30.4735C67.6893 30.3537 67.6186 30.1808 67.6186 29.9546C67.6186 29.5505 67.8084 29.2305 68.1887 28.9939C68.5687 28.7578 69.0366 28.6396 69.5916 28.6396C70.1876 28.6396 70.6861 28.7544 71.0868 28.9845C71.484 29.2179 71.6828 29.6461 71.6828 30.2702V32.8221C71.6828 32.8978 71.7026 32.9621 71.7426 33.0151C71.7824 33.0681 71.8264 33.0948 71.8748 33.0948C71.9164 33.0948 71.9537 33.087 71.9867 33.0719C72.0196 33.0561 72.0705 33.0142 72.1399 32.9457L72.3012 33.1667C72.0951 33.4072 71.8666 33.5756 71.6159 33.6717C71.4581 33.7337 71.2916 33.7646 71.1165 33.7646C70.8042 33.7646 70.5756 33.6738 70.4317 33.4919C70.349 33.3889 70.289 33.2361 70.2513 33.0336C69.9599 33.3256 69.6305 33.5313 69.2635 33.6513C69.0404 33.7268 68.8209 33.7646 68.6045 33.7646C68.3164 33.7646 68.0472 33.6726 67.797 33.489C67.5462 33.3054 67.4211 33.0193 67.4211 32.6312C67.4211 32.1572 67.6501 31.7815 68.1081 31.5031Z" fill="#BB2125"/>
<path d="M72.5769 33.3705C72.7682 33.327 72.9037 33.2677 72.9835 33.1931C73.0633 33.1182 73.103 32.9626 73.103 32.7265V27.352C73.103 27.135 73.0658 26.9935 72.9913 26.9264C72.917 26.86 72.7787 26.8044 72.5769 26.7605V26.5109H74.5895V32.7265C74.5895 32.9622 74.6276 33.1168 74.705 33.1893C74.7823 33.2621 74.9191 33.3224 75.1156 33.3705V33.6201H72.5769V33.3705Z" fill="#BB2125"/>
<path d="M83.3879 26.6223C83.8385 26.7844 84.0896 26.8653 84.1412 26.8653C84.275 26.8653 84.3828 26.8132 84.4634 26.7085C84.5444 26.6042 84.5949 26.494 84.6157 26.3792H84.9051V28.8365H84.642C84.3874 28.306 84.1275 27.8874 83.8623 27.581C83.3667 27.0165 82.8056 26.7339 82.1791 26.7339C81.4703 26.7339 80.9669 27.0377 80.6693 27.6456C80.3713 28.2534 80.2223 29.069 80.2223 30.0928C80.2223 30.8459 80.3098 31.4655 80.4851 31.9519C80.8109 32.8627 81.4168 33.3177 82.302 33.3177C82.8441 33.3177 83.3486 33.1673 83.8156 32.8658C84.0831 32.6913 84.3988 32.4121 84.7626 32.0286L85.0762 32.2794C84.6644 32.7399 84.3022 33.0729 83.9903 33.279C83.4345 33.6465 82.8168 33.8301 82.1372 33.8301C81.098 33.8301 80.2261 33.5221 79.5227 32.9058C78.7438 32.2248 78.3545 31.3074 78.3545 30.1535C78.3545 29.0102 78.7278 28.0842 79.4739 27.3754C80.1751 26.7114 81.0346 26.3792 82.0524 26.3792C82.4925 26.3792 82.9376 26.4604 83.3879 26.6223Z" fill="#BB2125"/>
<path d="M85.7566 33.3705C85.9605 33.3462 86.1024 33.2982 86.1821 33.2255C86.2615 33.1527 86.305 33.0127 86.312 32.8054L86.3223 32.495V29.6122C86.3223 29.3986 86.284 29.2533 86.208 29.1764C86.132 29.0996 85.9816 29.0475 85.7566 29.0208V28.7712H87.7559V29.5851C87.9796 29.2956 88.2012 29.066 88.4214 28.8954C88.6417 28.7251 88.8961 28.6398 89.1851 28.6398C89.4019 28.6398 89.597 28.7092 89.771 28.8479C89.9444 28.9863 90.0315 29.1892 90.0315 29.4556C90.0315 29.661 89.9703 29.8307 89.8482 29.964C89.7262 30.0975 89.5671 30.1641 89.3713 30.1641C89.1478 30.1641 88.9542 30.059 88.7909 29.8488C88.6278 29.6385 88.5135 29.5334 88.4481 29.5334C88.3073 29.5334 88.165 29.6204 88.0223 29.7945C87.8796 29.9686 87.8085 30.2175 87.8085 30.5415V32.5426C87.8085 32.8924 87.8588 33.1109 87.959 33.1983C88.0594 33.2858 88.2591 33.3434 88.5584 33.3705V33.6201H85.7566V33.3705Z" fill="#BB2125"/>
<path d="M93.1752 30.6634C93.1682 30.0391 93.1202 29.6026 93.0306 29.3541C92.9409 29.1056 92.762 28.9813 92.4933 28.9813C92.218 28.9813 92.0292 29.1245 91.9278 29.4109C91.8262 29.6974 91.7687 30.1146 91.7546 30.6634H93.1752ZM90.9391 29.3114C91.3686 28.8638 91.8866 28.6396 92.4925 28.6396C92.8382 28.6396 93.1634 28.7311 93.4683 28.9138C93.7729 29.0965 94.0073 29.3501 94.1717 29.6741C94.295 29.9188 94.3804 30.2361 94.4284 30.6255C94.4524 30.8082 94.4642 30.9478 94.4642 31.0444H91.7809C91.8053 31.4649 91.8739 31.8288 91.9874 32.1362C92.1932 32.7138 92.5558 33.0025 93.0746 33.0025C93.3221 33.0025 93.5559 32.9255 93.7758 32.772C93.9099 32.6795 94.0763 32.5243 94.2756 32.3055L94.5168 32.4541C94.1915 32.9867 93.8141 33.3568 93.3856 33.5649C93.1078 33.698 92.7888 33.7646 92.4291 33.7646C91.9114 33.7646 91.4263 33.5605 90.9736 33.1524C90.5211 32.7441 90.2947 32.0923 90.2947 31.1972C90.2947 30.3877 90.5096 29.7591 90.9391 29.3114Z" fill="#BB2125"/>
<path d="M97.9841 32.8698C98.1639 32.6673 98.2537 32.5248 98.2537 32.4423V29.8776C98.2537 29.7919 98.1765 29.6651 98.0224 29.4967C97.8682 29.3282 97.6647 29.2441 97.4115 29.2441C97.0384 29.2441 96.7852 29.5036 96.6516 30.0219C96.5796 30.2998 96.5438 30.6928 96.5438 31.2008C96.5438 31.7432 96.5779 32.152 96.6467 32.4266C96.7732 32.9245 97.0161 33.1732 97.3757 33.1732C97.6015 33.1732 97.8044 33.0723 97.9841 32.8698ZM95.585 29.3627C95.9804 28.8806 96.4554 28.6396 97.0104 28.6396C97.2878 28.6396 97.5344 28.7086 97.7503 28.8461C97.8838 28.9292 98.0515 29.077 98.2537 29.2904V27.3518C98.2537 27.0947 98.2024 26.9353 98.1001 26.8733C97.9972 26.8117 97.7857 26.774 97.4645 26.7604V26.5108H99.7402V32.5687C99.7402 32.7811 99.7812 32.9276 99.8635 33.0086C99.9456 33.0899 100.106 33.1404 100.346 33.1602V33.4097C99.7549 33.468 99.3731 33.5119 99.2012 33.5411C99.029 33.5704 98.7264 33.6446 98.2933 33.7646V33.0754C98.0942 33.2796 97.9126 33.4312 97.7482 33.5296C97.4877 33.6862 97.2065 33.7646 96.9047 33.7646C96.3906 33.7646 95.9429 33.5468 95.5622 33.1112C95.1817 32.6755 94.9917 32.0836 94.9917 31.336C94.9917 30.5023 95.1895 29.8448 95.585 29.3627Z" fill="#BB2125"/>
<path d="M101.464 26.6049C101.624 26.446 101.817 26.3663 102.043 26.3663C102.266 26.3663 102.457 26.446 102.617 26.6049C102.776 26.7639 102.856 26.9556 102.856 27.181C102.856 27.4064 102.776 27.5986 102.617 27.7575C102.457 27.9165 102.266 27.9958 102.043 27.9958C101.817 27.9958 101.624 27.9165 101.464 27.7575C101.305 27.5986 101.225 27.4064 101.225 27.181C101.225 26.9556 101.305 26.7639 101.464 26.6049ZM100.765 33.3705C100.947 33.3356 101.071 33.2871 101.139 33.2255C101.24 33.1332 101.291 32.9669 101.291 32.7265V29.6122C101.291 29.4051 101.255 29.2638 101.184 29.1888C101.114 29.1137 100.973 29.0578 100.765 29.0208V28.7712H102.777V32.7791C102.777 33.007 102.811 33.1531 102.88 33.2177C102.948 33.2822 103.076 33.3331 103.264 33.3705V33.6201H100.765V33.3705Z" fill="#BB2125"/>
<path d="M103.688 29.2309V28.9353C103.78 28.8503 103.894 28.7496 104.03 28.6333C104.211 28.4666 104.381 28.2946 104.541 28.1172C104.858 27.7694 105.145 27.3962 105.404 26.9969H105.674V28.7711H106.674V29.2309H105.674V32.4114C105.674 32.5597 105.696 32.6833 105.741 32.7832C105.809 32.9383 105.922 33.0155 106.079 33.0155C106.215 33.0155 106.33 32.9676 106.422 32.8715C106.514 32.7754 106.606 32.6419 106.698 32.4718L106.95 32.595C106.827 32.8801 106.681 33.112 106.51 33.292C106.21 33.6074 105.843 33.7646 105.411 33.7646C105.165 33.7646 104.95 33.7186 104.766 33.6261C104.411 33.4484 104.232 33.124 104.227 32.653V29.2309H103.688Z" fill="#BB2125"/>
<path d="M113.374 26.5106V26.7734C112.965 26.7869 112.692 26.8502 112.555 26.9623C112.417 27.0747 112.348 27.3315 112.348 27.7326V31.2618C112.348 31.7977 112.412 32.2117 112.538 32.5038C112.767 33.0467 113.206 33.3177 113.856 33.3177C114.663 33.3177 115.209 33.0174 115.493 32.4169C115.65 32.0877 115.729 31.6266 115.729 31.033V27.8115C115.729 27.4349 115.659 27.1755 115.52 27.0329C115.38 26.8908 115.108 26.8041 114.703 26.7734V26.5106H117.018V26.7734C116.681 26.839 116.459 26.9192 116.351 27.0136C116.243 27.1084 116.189 27.3262 116.189 27.667V31.0311C116.189 31.9247 115.974 32.6146 115.543 33.1007C115.111 33.587 114.434 33.8301 113.511 33.8301C112.303 33.8301 111.477 33.4682 111.032 32.7443C110.796 32.3604 110.678 31.8646 110.678 31.2574V27.7326C110.678 27.338 110.625 27.0899 110.52 26.9877C110.415 26.8859 110.178 26.8144 109.81 26.7734V26.5106H113.374Z" fill="#BB2125"/>
<path d="M117.396 33.3705C117.589 33.3462 117.732 33.2936 117.824 33.2124C117.915 33.1311 117.961 32.9687 117.961 32.7265V29.6122C117.961 29.4051 117.924 29.2615 117.85 29.1814C117.775 29.1013 117.624 29.0475 117.396 29.0208V28.7712H119.395V29.5193C119.563 29.2655 119.777 29.0557 120.037 28.8894C120.296 28.723 120.584 28.6398 120.9 28.6398C121.354 28.6398 121.705 28.7567 121.954 28.9909C122.203 29.2249 122.328 29.636 122.328 30.2245V32.7791C122.328 33.0135 122.369 33.1651 122.45 33.2328C122.53 33.3012 122.665 33.3466 122.854 33.3705V33.6201H120.377V33.3705C120.567 33.3327 120.696 33.281 120.765 33.2152C120.834 33.15 120.868 33.0013 120.868 32.7701V30.215C120.868 29.9747 120.844 29.7945 120.796 29.6742C120.713 29.4577 120.55 29.3494 120.305 29.3494C120.123 29.3494 119.954 29.4154 119.801 29.5477C119.648 29.6799 119.53 29.813 119.448 29.9467V32.7701C119.448 33.0013 119.482 33.15 119.551 33.2152C119.62 33.281 119.749 33.3327 119.938 33.3705V33.6201H117.396V33.3705Z" fill="#BB2125"/>
<path d="M123.974 26.6049C124.133 26.446 124.326 26.3663 124.552 26.3663C124.775 26.3663 124.967 26.446 125.126 26.6049C125.286 26.7639 125.365 26.9556 125.365 27.181C125.365 27.4064 125.286 27.5986 125.126 27.7575C124.967 27.9165 124.775 27.9958 124.552 27.9958C124.326 27.9958 124.133 27.9165 123.974 27.7575C123.814 27.5986 123.734 27.4064 123.734 27.181C123.734 26.9556 123.814 26.7639 123.974 26.6049ZM123.274 33.3705C123.456 33.3356 123.581 33.2871 123.649 33.2255C123.75 33.1332 123.8 32.9669 123.8 32.7265V29.6122C123.8 29.4051 123.765 29.2638 123.694 29.1888C123.623 29.1137 123.483 29.0578 123.274 29.0208V28.7712H125.287V32.7791C125.287 33.007 125.321 33.1531 125.389 33.2177C125.457 33.2822 125.585 33.3331 125.773 33.3705V33.6201H123.274V33.3705Z" fill="#BB2125"/>
<path d="M127.915 32.7424C128.034 33.1961 128.27 33.423 128.624 33.423C128.961 33.423 129.183 33.2491 129.288 32.9009C129.394 32.5532 129.446 31.9869 129.446 31.202C129.446 30.4209 129.391 29.8556 129.28 29.5061C129.17 29.1562 128.953 28.9813 128.63 28.9813C128.275 28.9813 128.039 29.2084 127.92 29.6621C127.841 29.9655 127.802 30.479 127.802 31.202C127.802 31.9354 127.84 32.4493 127.915 32.7424ZM126.926 29.3726C127.376 28.884 127.943 28.6396 128.624 28.6396C129.32 28.6396 129.89 28.8892 130.333 29.3877C130.776 29.8867 130.999 30.4916 130.999 31.202C130.999 31.9026 130.779 32.505 130.341 33.009C129.902 33.5128 129.33 33.7646 128.624 33.7646C127.939 33.7646 127.372 33.5195 126.923 33.0292C126.475 32.5389 126.25 31.9297 126.25 31.202C126.25 30.4712 126.475 29.8612 126.926 29.3726Z" fill="#BB2125"/>
<path d="M131.433 33.3705C131.626 33.3462 131.769 33.2936 131.861 33.2124C131.952 33.1311 131.998 32.9687 131.998 32.7265V29.6122C131.998 29.4051 131.961 29.2615 131.887 29.1814C131.812 29.1013 131.661 29.0475 131.433 29.0208V28.7712H133.432V29.5193C133.6 29.2655 133.814 29.0557 134.074 28.8894C134.333 28.723 134.621 28.6398 134.937 28.6398C135.391 28.6398 135.742 28.7567 135.991 28.9909C136.24 29.2249 136.365 29.636 136.365 30.2245V32.7791C136.365 33.0135 136.405 33.1651 136.486 33.2328C136.567 33.3012 136.702 33.3466 136.891 33.3705V33.6201H134.414V33.3705C134.604 33.3327 134.733 33.281 134.802 33.2152C134.87 33.15 134.905 33.0013 134.905 32.7701V30.215C134.905 29.9747 134.881 29.7945 134.833 29.6742C134.75 29.4577 134.586 29.3494 134.342 29.3494C134.159 29.3494 133.992 29.4154 133.838 29.5477C133.685 29.6799 133.567 29.813 133.485 29.9467V32.7701C133.485 33.0013 133.519 33.15 133.588 33.2152C133.657 33.281 133.786 33.3327 133.975 33.3705V33.6201H131.433V33.3705Z" fill="#BB2125"/>
<path d="M9.43726 33.1434C10.5735 33.1055 11.38 32.951 11.8583 32.6816C12.5941 32.2727 12.9624 31.504 12.9624 30.3753V11.3301C12.9624 10.1901 12.6008 9.42141 11.8781 9.02402C11.4391 8.78076 10.6253 8.62075 9.43726 8.54338V7.54466H31.798V15.4818H30.7983C30.3134 13.0311 29.4963 11.3146 28.347 10.3322C27.1977 9.34992 25.0792 8.85876 21.9906 8.85876C20.8413 8.85876 20.1096 8.99101 19.7973 9.25552C19.485 9.52002 19.3286 10.0129 19.3286 10.7338V19.8972C21.4489 19.9359 22.8825 19.4948 23.6307 18.5741C24.3778 17.6542 24.9435 16.1849 25.3265 14.1677H26.3262V27.3088H25.3265C25.0578 25.1873 24.5178 23.6408 23.7071 22.6692C22.8958 21.6976 21.4365 21.2113 19.3286 21.2113V30.3762C19.3286 31.5934 19.683 32.3654 20.3924 32.6915C21.1019 33.0185 22.1855 33.1688 23.6429 33.1434V34.1421H9.43726V33.1434Z" fill="#BB2125"/>
<path d="M9.43726 33.1434C10.5735 33.1055 11.38 32.951 11.8583 32.6816C12.5941 32.2727 12.9624 31.504 12.9624 30.3753V11.3301C12.9624 10.1901 12.6008 9.42141 11.8781 9.02402C11.4391 8.78076 10.6253 8.62075 9.43726 8.54338V7.54466H31.798V15.4818H30.7983C30.3134 13.0311 29.4963 11.3146 28.347 10.3322C27.1977 9.34992 25.0792 8.85876 21.9906 8.85876C20.8413 8.85876 20.1096 8.99101 19.7973 9.25552C19.485 9.52002 19.3286 10.0129 19.3286 10.7338V19.8972C21.4489 19.9359 22.8825 19.4948 23.6307 18.5741C24.3778 17.6542 24.9435 16.1849 25.3265 14.1677H26.3262V27.3088H25.3265C25.0578 25.1873 24.5178 23.6408 23.7071 22.6692C22.8958 21.6976 21.4365 21.2113 19.3286 21.2113V30.3762C19.3286 31.5934 19.683 32.3654 20.3924 32.6915C21.1019 33.0185 22.1855 33.1688 23.6429 33.1434V34.1421H9.43726V33.1434Z" stroke="#BB2125"/>
<path d="M36.0261 22.8371C36.6707 22.8224 37.1335 22.7448 37.4155 22.6035C37.8745 22.3661 38.1044 21.9094 38.1044 21.2339V10.1428C38.1044 9.47234 37.8857 9.0226 37.4488 8.79384C37.1815 8.65423 36.7076 8.56929 36.0261 8.53964V7.96144H44.0234V8.53964C43.304 8.56929 42.8099 8.65066 42.5403 8.78291C42.0908 9.01167 41.8662 9.46498 41.8662 10.1428V21.2339C41.8662 21.8726 42.046 22.2992 42.4056 22.5143C42.7649 22.7296 43.304 22.8371 44.0234 22.8371V23.4153H36.0261V22.8371Z" fill="#BB2125"/>
<path d="M36.0261 22.8371C36.6707 22.8224 37.1335 22.7448 37.4155 22.6035C37.8745 22.3661 38.1044 21.9094 38.1044 21.2339V10.1428C38.1044 9.47234 37.8857 9.0226 37.4488 8.79384C37.1815 8.65423 36.7076 8.56929 36.0261 8.53964V7.96144H44.0234V8.53964C43.304 8.56929 42.8099 8.65066 42.5403 8.78291C42.0908 9.01167 41.8662 9.46498 41.8662 10.1428V21.2339C41.8662 21.8726 42.046 22.2992 42.4056 22.5143C42.7649 22.7296 43.304 22.8371 44.0234 22.8371V23.4153H36.0261V22.8371Z" stroke="#BB2125"/>
<path d="M53.8668 14.8993C54.5195 14.5008 54.8463 13.5784 54.8463 12.1329C54.8463 11.2465 54.7217 10.5457 54.4725 10.0316C54.0419 9.1599 53.2567 8.72362 52.1169 8.72362C51.498 8.72362 51.0918 8.80015 50.8994 8.95279C50.7071 9.10565 50.6109 9.35733 50.6109 9.7072V15.5307C52.1285 15.5086 53.2136 15.2979 53.8668 14.8993ZM44.9023 22.8371C45.6722 22.8003 46.1979 22.656 46.4795 22.4044C46.7607 22.1527 46.9017 21.6048 46.9017 20.7608V10.6159C46.9017 9.74 46.7348 9.16936 46.4018 8.90402C46.1794 8.7274 45.6795 8.60629 44.9023 8.53964V7.96144H52.288C53.8195 7.96144 55.0601 8.12165 56.0091 8.44166C57.8467 9.08925 58.7658 10.2539 58.7658 11.9359C58.7658 13.1785 58.2809 14.1571 57.3115 14.8717C56.571 15.4077 55.7868 15.75 54.9593 15.8986L59.8288 22.3812C59.9595 22.5595 60.0977 22.6762 60.244 22.7315C60.3899 22.7875 60.5704 22.8224 60.7857 22.8371V23.4153H56.0029L50.633 16.2666H50.6109V20.7608C50.6109 21.5604 50.7441 22.0989 51.0108 22.3764C51.2772 22.6539 51.8103 22.8076 52.6102 22.8371V23.4153H44.9023V22.8371Z" fill="#BB2125"/>
<path d="M53.8668 14.8993C54.5195 14.5008 54.8463 13.5784 54.8463 12.1329C54.8463 11.2465 54.7217 10.5457 54.4725 10.0316C54.0419 9.1599 53.2567 8.72362 52.1169 8.72362C51.498 8.72362 51.0918 8.80015 50.8994 8.95279C50.7071 9.10565 50.6109 9.35733 50.6109 9.7072V15.5307C52.1285 15.5086 53.2136 15.2979 53.8668 14.8993V14.8993ZM44.9023 22.8371C45.6722 22.8003 46.1979 22.656 46.4795 22.4044C46.7607 22.1527 46.9017 21.6048 46.9017 20.7608V10.6159C46.9017 9.73999 46.7348 9.16936 46.4018 8.90402C46.1794 8.7274 45.6796 8.60629 44.9023 8.53964V7.96144H52.288C53.8195 7.96144 55.0601 8.12165 56.0091 8.44166C57.8467 9.08925 58.7658 10.2539 58.7658 11.9359C58.7658 13.1785 58.2809 14.1571 57.3115 14.8717C56.571 15.4077 55.7868 15.75 54.9593 15.8986L59.8288 22.3812C59.9595 22.5595 60.0977 22.6762 60.244 22.7315C60.3899 22.7875 60.5704 22.8224 60.7857 22.8371V23.4153H56.0029L50.633 16.2666H50.6109V20.7608C50.6109 21.5604 50.7441 22.0989 51.0108 22.3764C51.2772 22.6539 51.8103 22.8076 52.6102 22.8371V23.4153H44.9023V22.8371Z" stroke="#BB2125"/>
<path d="M61.4485 23.4153V22.8371C62.1013 22.815 62.5654 22.7259 62.84 22.5698C63.2626 22.3325 63.4741 21.8873 63.4741 21.2339V10.1428C63.4741 9.4797 63.255 9.03375 62.8173 8.80499C62.5649 8.66538 62.1087 8.57665 61.4485 8.53964V7.96144H74.6282V12.5608H74.0494C73.7594 11.0888 73.2669 10.081 72.5718 9.53815C71.8763 8.99506 70.6108 8.72362 68.7742 8.72362C68.0755 8.72362 67.631 8.79637 67.4416 8.94186C67.2518 9.08715 67.157 9.37625 67.157 9.80875V15.1102C68.4606 15.1255 69.343 14.8925 69.805 14.4113C70.2667 13.93 70.6205 13.0505 70.8663 11.7723H71.445V19.4467H70.8663C70.7024 18.145 70.369 17.2285 69.8662 16.6965C69.3637 16.1648 68.4606 15.8986 67.157 15.8986V21.4303C67.157 21.9141 67.2816 22.2429 67.5312 22.4174C67.7806 22.5923 68.2929 22.6794 69.0682 22.6794C70.5281 22.6794 71.7197 22.3974 72.6434 21.8331C73.5668 21.2688 74.3866 20.2106 75.1017 18.6582H75.733L74.8123 23.4153H61.4485Z" fill="#BB2125"/>
<path d="M61.4485 23.4153V22.8371C62.1013 22.815 62.5654 22.7259 62.84 22.5698C63.2626 22.3325 63.4741 21.8873 63.4741 21.2339V10.1428C63.4741 9.4797 63.255 9.03375 62.8173 8.80499C62.5649 8.66538 62.1087 8.57665 61.4485 8.53964V7.96144H74.6282V12.5608H74.0494C73.7594 11.0888 73.2669 10.081 72.5718 9.53815C71.8763 8.99506 70.6108 8.72362 68.7742 8.72362C68.0755 8.72362 67.631 8.79637 67.4416 8.94186C67.2518 9.08715 67.157 9.37625 67.157 9.80875V15.1102C68.4606 15.1255 69.343 14.8925 69.805 14.4113C70.2667 13.93 70.6205 13.0505 70.8663 11.7723H71.445V19.4467H70.8663C70.7024 18.145 70.369 17.2285 69.8662 16.6965C69.3637 16.1648 68.4606 15.8986 67.157 15.8986V21.4303C67.157 21.9141 67.2816 22.2429 67.5312 22.4174C67.7806 22.5923 68.2929 22.6794 69.0682 22.6794C70.5281 22.6794 71.7197 22.3974 72.6434 21.8331C73.5668 21.2688 74.3866 20.2106 75.1017 18.6582H75.733L74.8123 23.4153H61.4485Z" stroke="#BB2125"/>
<path d="M76.7854 22.8371C77.4037 22.815 77.8457 22.7328 78.1111 22.5913C78.56 22.3526 78.7847 21.8977 78.7847 21.2265V10.1428C78.7847 9.4797 78.5711 9.03375 78.1441 8.80499C77.8937 8.66538 77.4408 8.57665 76.7854 8.53964V7.96144H84.7566V8.53964C83.8289 8.56929 83.2112 8.69817 82.9033 8.92651C82.5954 9.15485 82.4416 9.71792 82.4416 10.6159V21.4273C82.4416 21.9342 82.5735 22.2696 82.8379 22.4336C83.1018 22.5978 83.6172 22.6794 84.3843 22.6794C85.7613 22.6794 86.9167 22.3772 87.8507 21.7723C88.7845 21.1674 89.5905 19.9892 90.268 18.2377H90.9387L90.0179 23.4153H76.7854V22.8371Z" fill="#BB2125"/>
<path d="M76.7854 22.8371C77.4037 22.815 77.8457 22.7328 78.1111 22.5913C78.56 22.3526 78.7847 21.8977 78.7847 21.2265V10.1428C78.7847 9.4797 78.5711 9.03375 78.1441 8.80499C77.8937 8.66538 77.4408 8.57665 76.7854 8.53964V7.96144H84.7566V8.53964C83.8289 8.56929 83.2112 8.69817 82.9033 8.92651C82.5954 9.15485 82.4416 9.71792 82.4416 10.6159V21.4273C82.4416 21.9342 82.5735 22.2696 82.8379 22.4336C83.1018 22.5978 83.6172 22.6794 84.3843 22.6794C85.7613 22.6794 86.9167 22.3772 87.8507 21.7723C88.7845 21.1674 89.5905 19.9892 90.268 18.2377H90.9387L90.0179 23.4153H76.7854V22.8371Z" stroke="#BB2125"/>
<path d="M100.606 18.0275L98.4039 12.7185H98.2511L96.1826 18.0275H100.606ZM92.0171 22.8371C92.5664 22.8003 93.0081 22.5501 93.3427 22.0873C93.5582 21.7965 93.8661 21.155 94.2673 20.163L99.3445 7.64605H99.9823L105.096 19.6595C105.67 21.0097 106.099 21.8808 106.382 22.2721C106.666 22.6638 107.069 22.852 107.591 22.8371V23.4153H100.172V22.8371C100.921 22.8076 101.413 22.7439 101.649 22.6466C101.884 22.5497 102.002 22.3028 102.002 21.9071C102.002 21.728 101.943 21.4553 101.824 21.089C101.748 20.8731 101.646 20.6121 101.518 20.3066L100.929 18.9211H95.8202C95.4881 19.8378 95.2743 20.4353 95.1785 20.7129C94.9775 21.2988 94.8772 21.725 94.8772 21.9921C94.8772 22.3182 95.0939 22.5555 95.5279 22.7038C95.7823 22.7854 96.1643 22.8297 96.6734 22.8371V23.4153H92.0171V22.8371Z" fill="#BB2125"/>
<path d="M100.606 18.0275L98.4039 12.7185H98.2511L96.1826 18.0275H100.606ZM92.0171 22.8371C92.5664 22.8003 93.0081 22.5501 93.3427 22.0873C93.5582 21.7965 93.8661 21.155 94.2673 20.163L99.3445 7.64605H99.9823L105.096 19.6595C105.67 21.0097 106.099 21.8808 106.382 22.2721C106.666 22.6638 107.069 22.852 107.591 22.8371V23.4153H100.172V22.8371C100.921 22.8076 101.413 22.7439 101.649 22.6466C101.884 22.5497 102.002 22.3028 102.002 21.9071C102.002 21.728 101.943 21.4553 101.824 21.089C101.748 20.8731 101.646 20.6121 101.518 20.3066L100.929 18.9211H95.8202C95.4881 19.8378 95.2743 20.4353 95.1785 20.7129C94.9775 21.2988 94.8772 21.725 94.8772 21.9921C94.8772 22.3182 95.0939 22.5555 95.5279 22.7038C95.7823 22.7854 96.1643 22.8297 96.6734 22.8371V23.4153H92.0171V22.8371Z" stroke="#BB2125"/>
<path d="M108.458 22.8373C109.303 22.8152 109.847 22.6542 110.091 22.3537C110.335 22.053 110.458 21.61 110.458 21.0238V10.1818C109.765 9.39982 109.337 8.94041 109.175 8.80248C109.012 8.66476 108.791 8.57729 108.511 8.53987V7.96166H113.334L121.236 17.5445H121.349V10.8001C121.349 10.0245 121.208 9.47046 120.928 9.13868C120.647 8.80689 120.086 8.60736 119.244 8.53987V7.96166H124.137V8.53987C123.426 8.65824 122.95 8.81678 122.709 9.01547C122.468 9.21458 122.348 9.66074 122.348 10.3533V23.8623H121.717L111.614 11.6117H111.457V20.577C111.457 21.2818 111.554 21.7803 111.746 22.0728C112.05 22.545 112.673 22.8001 113.614 22.8373V23.4155H108.458V22.8373Z" fill="#BB2125"/>
<path d="M108.458 22.8373C109.303 22.8152 109.847 22.6542 110.091 22.3537C110.335 22.053 110.458 21.61 110.458 21.0238V10.1818C109.765 9.39982 109.337 8.94041 109.175 8.80248C109.012 8.66476 108.791 8.57729 108.511 8.53987V7.96166H113.334L121.236 17.5445H121.349V10.8001C121.349 10.0245 121.208 9.47046 120.928 9.13868C120.647 8.80689 120.086 8.60736 119.244 8.53987V7.96166H124.137V8.53987C123.426 8.65824 122.95 8.81678 122.709 9.01547C122.468 9.21458 122.348 9.66074 122.348 10.3533V23.8623H121.717L111.614 11.6117H111.457V20.577C111.457 21.2818 111.554 21.7803 111.746 22.0728C112.05 22.545 112.673 22.8001 113.614 22.8373V23.4155H108.458V22.8373Z" stroke="#BB2125"/>
<path d="M130.843 22.3402C130.995 22.5488 131.32 22.6531 131.818 22.6531C133.168 22.6531 134.278 22.1743 135.146 21.2166C136.014 20.2591 136.448 18.4202 136.448 15.6995C136.448 14.0824 136.214 12.6926 135.747 11.5297C134.99 9.65926 133.714 8.72362 131.918 8.72362C131.324 8.72362 130.938 8.85061 130.76 9.10397C130.641 9.26776 130.582 9.58441 130.582 10.0543V21.3226C130.604 21.7925 130.691 22.1317 130.843 22.3402ZM124.952 22.8371C125.529 22.8003 125.944 22.7189 126.199 22.5932C126.648 22.364 126.873 21.946 126.873 21.339V10.0377C126.873 9.45341 126.659 9.04657 126.233 8.81739C125.985 8.6843 125.559 8.59157 124.952 8.53964V7.96144H131.944C134.765 7.96144 136.917 8.71352 138.399 10.2173C139.746 11.5873 140.421 13.4258 140.421 15.7331C140.421 17.8029 139.743 19.556 138.388 20.9925C136.861 22.6081 134.792 23.4153 132.179 23.4153H124.952V22.8371Z" fill="#BB2125"/>
<path d="M130.843 22.3402C130.995 22.5488 131.32 22.6531 131.818 22.6531C133.168 22.6531 134.278 22.1743 135.146 21.2166C136.014 20.2591 136.448 18.4202 136.448 15.6995C136.448 14.0824 136.214 12.6926 135.747 11.5297C134.99 9.65926 133.714 8.72362 131.918 8.72362C131.324 8.72362 130.938 8.85061 130.76 9.10397C130.641 9.26776 130.582 9.58441 130.582 10.0543V21.3226C130.604 21.7925 130.691 22.1317 130.843 22.3402ZM124.952 22.8371C125.529 22.8003 125.944 22.7189 126.199 22.5932C126.648 22.364 126.873 21.946 126.873 21.339V10.0377C126.873 9.45342 126.659 9.04657 126.233 8.81739C125.985 8.6843 125.559 8.59157 124.952 8.53964V7.96144H131.944C134.765 7.96144 136.917 8.71352 138.399 10.2173C139.746 11.5873 140.421 13.4258 140.421 15.7331C140.421 17.8029 139.743 19.556 138.388 20.9925C136.861 22.6081 134.792 23.4153 132.179 23.4153H124.952V22.8371Z" stroke="#BB2125"/>
<path d="M141.946 18.0801H142.604C142.969 19.7882 143.558 21.03 144.372 21.8052C145.186 22.581 146.119 22.9685 147.17 22.9685C148.192 22.9685 148.919 22.7026 149.35 22.1696C149.78 21.6363 149.996 21.0756 149.996 20.4867C149.996 19.8008 149.771 19.2419 149.321 18.8095C149.023 18.5262 148.422 18.1574 147.516 17.7025L146.058 16.9645C144.611 16.2342 143.591 15.5116 142.996 14.7961C142.401 14.0812 142.104 13.1988 142.104 12.1483C142.104 11.0312 142.498 9.98814 143.286 9.01991C144.075 8.05147 145.284 7.56725 146.912 7.56725C147.741 7.56725 148.542 7.69467 149.316 7.94845C150.09 8.20265 150.532 8.32943 150.642 8.32943C150.891 8.32943 151.064 8.26005 151.159 8.12044C151.254 7.98083 151.331 7.79643 151.39 7.56725H152.074V12.5346H151.443C151.143 11.3742 150.614 10.3742 149.857 9.53525C149.1 8.69675 148.18 8.27687 147.098 8.27687C146.337 8.27687 145.735 8.48755 145.293 8.9089C144.85 9.33025 144.629 9.84244 144.629 10.4461C144.629 11.1692 144.836 11.7097 145.25 12.0674C145.656 12.4328 146.567 12.9692 147.98 13.6771L149.672 14.5272C150.427 14.9075 151.028 15.328 151.476 15.7887C152.313 16.6516 152.732 17.6999 152.732 18.9343C152.732 20.087 152.282 21.1744 151.383 22.1971C150.484 23.2196 149.043 23.7307 147.062 23.7307C146.607 23.7307 146.147 23.6893 145.68 23.6075C145.214 23.5251 144.754 23.3981 144.299 23.2261L143.859 23.065C143.756 23.0369 143.657 23.0137 143.561 22.9957C143.466 22.9776 143.385 22.9685 143.319 22.9685C143.084 22.9685 142.923 23.0352 142.835 23.1674C142.747 23.2997 142.669 23.4872 142.604 23.7307H141.946V18.0801Z" fill="#BB2125"/>
<path d="M141.946 18.0801H142.604C142.969 19.7882 143.558 21.03 144.372 21.8052C145.186 22.581 146.119 22.9685 147.17 22.9685C148.192 22.9685 148.919 22.7026 149.35 22.1696C149.78 21.6364 149.996 21.0756 149.996 20.4867C149.996 19.8008 149.771 19.2419 149.321 18.8095C149.023 18.5262 148.422 18.1574 147.516 17.7025L146.058 16.9645C144.611 16.2342 143.591 15.5116 142.996 14.7961C142.401 14.0812 142.104 13.1988 142.104 12.1483C142.104 11.0312 142.498 9.98814 143.286 9.01991C144.075 8.05147 145.284 7.56725 146.912 7.56725C147.741 7.56725 148.542 7.69467 149.316 7.94845C150.09 8.20265 150.532 8.32943 150.642 8.32943C150.891 8.32943 151.064 8.26005 151.159 8.12044C151.254 7.98083 151.331 7.79643 151.39 7.56725H152.074V12.5346H151.443C151.143 11.3742 150.614 10.3742 149.857 9.53525C149.1 8.69675 148.18 8.27687 147.098 8.27687C146.337 8.27687 145.735 8.48754 145.293 8.9089C144.85 9.33025 144.629 9.84244 144.629 10.4461C144.629 11.1692 144.836 11.7097 145.25 12.0674C145.656 12.4328 146.567 12.9692 147.98 13.6771L149.672 14.5272C150.427 14.9075 151.028 15.328 151.476 15.7887C152.313 16.6516 152.732 17.6999 152.732 18.9343C152.732 20.087 152.282 21.1744 151.383 22.1971C150.484 23.2196 149.043 23.7307 147.062 23.7307C146.607 23.7307 146.146 23.6893 145.68 23.6075C145.214 23.5251 144.754 23.3981 144.299 23.2261L143.859 23.065C143.756 23.0369 143.657 23.0137 143.561 22.9957C143.466 22.9776 143.385 22.9685 143.319 22.9685C143.084 22.9685 142.923 23.0352 142.835 23.1674C142.747 23.2997 142.669 23.4872 142.604 23.7307H141.946V18.0801Z" stroke="#BB2125" stroke-width="1.33333"/>
</svg>
