<svg width="243" height="45" viewBox="0 0 243 45" fill="none" xmlns="http://www.w3.org/2000/svg">
<g clip-path="url(#clip0_258_4479)">
<path d="M94.8983 35.3281V36.5601H97.6583V37.7183H94.8983V39.9609H93.627V34.1699H98.0304V35.3281H94.8983Z" fill="white"/>
<path d="M99.4561 39.9572V34.1699H103.819V35.3023H100.72V36.4752H103.447V37.6076H100.72V38.8212H103.86V39.9535H99.4561V39.9572Z" fill="white"/>
<path d="M107.77 39.9572H105.515V34.1699H107.77C109.586 34.1699 110.843 35.4166 110.843 37.047V37.0654C110.843 38.6921 109.586 39.9572 107.77 39.9572ZM109.513 37.0654C109.513 36.04 108.809 35.3207 107.77 35.3207H106.786V38.8101H107.77C108.809 38.8101 109.513 38.1056 109.513 37.0802V37.0654Z" fill="white"/>
<path d="M112.413 39.9572V34.1699H116.776V35.3023H113.677V36.4752H116.404V37.6076H113.677V38.8212H116.817V39.9535H112.413V39.9572Z" fill="white"/>
<path d="M121.979 39.9572L120.741 38.1056H119.742V39.9572H118.471V34.1699H121.113C122.476 34.1699 123.294 34.8892 123.294 36.0806V36.099C123.294 37.0322 122.789 37.6224 122.056 37.8916L123.467 39.9609H121.979V39.9572ZM122.005 36.147C122.005 35.6011 121.625 35.3207 121.006 35.3207H119.742V36.9843H121.032C121.651 36.9843 122.008 36.6523 122.008 36.1654V36.147H122.005Z" fill="white"/>
<path d="M129.338 39.9568L128.811 38.6584H126.364L125.837 39.9568H124.54L127.02 34.1289H128.192L130.668 39.9568H129.338ZM127.587 35.6596L126.817 37.5371H128.354L127.587 35.6596Z" fill="white"/>
<path d="M131.95 39.9572V34.1699H133.222V38.799H136.103V39.9572H131.95Z" fill="white"/>
<path d="M143.079 40.0566C141.376 40.0566 140.112 38.7398 140.112 37.0799V37.0615C140.112 35.4164 141.35 34.0664 143.127 34.0664C144.217 34.0664 144.87 34.4316 145.408 34.959L144.597 35.8922C144.151 35.4865 143.698 35.2394 143.119 35.2394C142.143 35.2394 141.443 36.0508 141.443 37.043V37.0615C141.443 38.0537 142.128 38.8799 143.119 38.8799C143.779 38.8799 144.184 38.6144 144.641 38.2012L145.452 39.0201C144.855 39.6619 144.195 40.0566 143.079 40.0566Z" fill="white"/>
<path d="M150.349 39.9572L149.111 38.1056H148.112V39.9572H146.841V34.1699H149.483C150.846 34.1699 151.664 34.8892 151.664 36.0806V36.099C151.664 37.0322 151.16 37.6224 150.426 37.8916L151.838 39.9609H150.349V39.9572ZM150.371 36.147C150.371 35.6011 149.991 35.3207 149.372 35.3207H148.108V36.9843H149.398C150.017 36.9843 150.375 36.6523 150.375 36.1654V36.147H150.371Z" fill="white"/>
<path d="M153.282 39.9572V34.1699H157.645V35.3023H154.546V36.4752H157.273V37.6076H154.546V38.8212H157.686V39.9535H153.282V39.9572Z" fill="white"/>
<path d="M161.596 39.9572H159.341V34.1699H161.596C163.413 34.1699 164.669 35.4166 164.669 37.047V37.0654C164.669 38.6921 163.413 39.9572 161.596 39.9572ZM163.339 37.0654C163.339 36.04 162.639 35.3207 161.596 35.3207H160.612V38.8101H161.596C162.635 38.8101 163.339 38.1056 163.339 37.0802V37.0654Z" fill="white"/>
<path d="M166.279 39.9572V34.1699H167.551V39.9572H166.279Z" fill="white"/>
<path d="M171.917 35.3429V39.9572H170.646V35.3429H168.885V34.1699H173.675V35.3429H171.917Z" fill="white"/>
<path d="M180.37 40.0494C178.819 40.0494 177.868 39.1826 177.868 37.4785V34.1699H179.139V37.4453C179.139 38.3896 179.611 38.8765 180.389 38.8765C181.166 38.8765 181.634 38.4043 181.634 37.4859V34.1699H182.905V37.4343C182.905 39.19 181.922 40.0494 180.37 40.0494Z" fill="white"/>
<path d="M188.768 39.9572L185.968 36.2761V39.9572H184.711V34.1699H185.883L188.591 37.733V34.1699H189.848V39.9572H188.768Z" fill="white"/>
<path d="M191.753 39.9572V34.1699H193.024V39.9572H191.753Z" fill="white"/>
<path d="M197.682 40.0566C195.899 40.0566 194.616 38.725 194.616 37.0799V37.0615C194.616 35.4164 195.913 34.0664 197.697 34.0664C199.48 34.0664 200.763 35.398 200.763 37.043V37.0615C200.763 38.7103 199.466 40.0566 197.682 40.0566ZM199.432 37.0652C199.432 36.073 198.706 35.2467 197.682 35.2467C196.658 35.2467 195.946 36.0582 195.946 37.0504V37.0689C195.946 38.0611 196.672 38.8873 197.697 38.8873C198.721 38.8873 199.432 38.0758 199.432 37.0836V37.0652Z" fill="white"/>
<path d="M206.386 39.9572L203.586 36.2761V39.9572H202.329V34.1699H203.501L206.209 37.733V34.1699H207.466V39.9572H206.386Z" fill="white"/>
<path d="M63.8897 23.773L63.2744 27.373H58.9482L63.2449 6.89062H69.325L73.6216 27.373H69.1481L68.507 23.773H63.8897ZM66.9003 14.7324C66.5797 12.9177 66.2886 10.9591 66.2591 10.9296H66.1412C66.1412 10.9591 65.8206 12.8919 65.5001 14.7029L64.5936 19.8226H67.8105L66.9003 14.7324Z" fill="white"/>
<path d="M81.316 10.9591V15.4664H86.4896V19.5644H81.316V27.3767H77.0488V6.89062H88.1294V10.9591H81.316Z" fill="white"/>
<path d="M95.982 10.9591V15.4664H101.156V19.5644H95.982V27.3767H91.7148V6.89062H102.795V10.9591H95.982Z" fill="white"/>
<path d="M106.377 6.89062H110.644V27.373H106.377V6.89062Z" fill="white"/>
<path d="M119.178 15.9312H119.09C119.09 15.9607 119.119 18.4468 119.119 20.848V27.373H115.025V6.89062H119.352L124.82 18.7714H124.908C124.908 18.7419 124.879 16.4882 124.879 13.8546V6.89062H128.973V27.373H124.647L119.178 15.9312Z" fill="white"/>
<path d="M133.388 6.89062H137.655V27.373H133.388V6.89062Z" fill="white"/>
<path d="M149.561 10.9591V27.373H145.323V10.9591H141.145V6.89062H153.743V10.9591H149.561Z" fill="white"/>
<path d="M166.419 27.3728H162.152V20.0584L156.89 6.89041H161.713L163.611 12.508C164.02 13.7953 164.341 14.9351 164.37 14.9646H164.488C164.517 14.9351 164.838 13.7953 165.277 12.5338L167.237 6.88672H171.593L166.419 20.0547V27.3728Z" fill="white"/>
<path d="M189.222 6.89062C193.08 6.89062 195.42 9.28817 195.42 13.9431C195.42 18.1849 193.08 20.848 189.251 20.848H187.527V27.373H183.26V6.89062H189.222ZM188.96 16.9566C190.479 16.9566 191.123 16.0197 191.153 14.0021C191.153 12.0693 190.537 10.9591 188.96 10.9591H187.527L187.556 16.9566H188.96Z" fill="white"/>
<path d="M198.909 6.89062H203.176V23.3046H209.636V27.373H198.909V6.89062Z" fill="white"/>
<path d="M225.909 20.3205C225.909 25.4697 223.746 27.7529 219.449 27.7529C215.152 27.7529 212.989 25.4697 212.989 20.3205V6.89062H217.256V20.3205C217.256 22.4562 217.754 23.655 219.567 23.655C221.409 23.655 221.907 22.4562 221.907 20.3205V6.89062H225.912V20.3205H225.909Z" fill="white"/>
<path d="M233.522 21.0831C233.669 22.7503 234.31 23.7757 235.832 23.7757C236.971 23.7757 237.704 23.2188 237.704 21.961C237.704 20.3233 236.359 19.8253 234.458 18.7999C232.383 17.6602 229.722 16.2253 229.722 12.0389C229.722 8.76345 231.506 6.50977 235.714 6.50977C238.872 6.50977 241.651 7.76755 242.144 11.895L238.021 13.0053C237.759 11.1315 237.085 10.4897 235.828 10.4897C234.69 10.4897 234.104 10.9876 234.104 12.0979C234.104 13.6471 235.243 14.145 237.435 15.2885C239.746 16.4577 242.052 17.804 242.052 21.8135C242.052 25.7934 239.889 27.7557 235.913 27.7557C232.494 27.7557 229.804 26.2065 229.395 22.2266L233.522 21.0831Z" fill="white"/>
<path d="M51.2758 18.5459C50.5646 17.4652 48.9949 16.8418 46.7397 16.7422C42.8005 16.5652 38.3822 18.1475 32.4753 20.6373C32.2874 20.1799 32.1547 19.859 32.1437 19.8664L24.7738 0.136475L24.7259 0H22.2054C22.2054 0 7.25195 36.3984 6.32334 38.5266C5.04467 41.6582 3.66651 42.6762 0.191616 43.0635L0 43.082V45L0.217411 44.9926C1.36342 44.9594 2.49101 44.9115 3.6186 44.8598C4.75725 44.8119 6.60708 44.7639 7.74941 44.7271C8.96912 44.7602 10.1704 44.8119 11.3791 44.8598C12.573 44.9078 13.7632 44.9594 14.9719 44.9926L15.1893 45V43.0783L15.0014 43.0598C14.7397 43.034 14.4597 43.0119 14.1649 42.9934C12.2524 42.8643 9.87193 42.702 9.87193 40.441C9.87193 38.3533 23.4288 7.59836 23.4288 7.59836V8.01148L28.2524 22.6254C24.0921 25.2553 19.508 28.5492 17.0354 31.1422L17.4371 31.5701C20.0534 29.3717 24.7333 26.6201 28.8788 24.5434L32.5674 35.7234C33.2418 37.4496 33.8645 39.2607 33.8645 40.7766C33.8645 42.916 30.2091 43.0008 28.245 43.0488C28.0534 43.0525 27.8765 43.0561 27.7217 43.0635L27.5154 43.0709V45L27.7328 44.9963C29.2989 44.9631 30.8834 44.9152 32.4679 44.8635C34.0709 44.8156 35.6665 44.7676 37.2436 44.7307C38.7986 44.7639 40.3684 44.8156 41.9308 44.8635C43.4859 44.9115 45.0336 44.9631 46.5702 44.9963L46.7876 45V43.0857L46.5996 43.0635C44.4955 42.8164 42.5131 42.5803 41.0907 40.7102C40.2542 39.6369 39.274 37.2725 38.4891 35.373C38.1869 34.6316 37.9216 33.9971 37.7079 33.5324L33.7613 23.8758C33.7466 23.8537 33.7319 23.8279 33.7282 23.7947C33.7282 23.791 33.7282 23.791 33.7282 23.791C33.7282 23.791 33.5697 23.3889 33.3523 22.843C37.8369 20.973 41.2381 20.2943 44.5877 20.4455C47.1634 20.5635 48.8438 21.209 49.4407 22.3193C49.6729 22.7471 49.7355 23.2488 49.6287 23.8094L50.0045 23.9754C51.7106 21.7475 52.1492 19.8701 51.2758 18.5459Z" fill="white"/>
</g>
<defs>
<clipPath id="clip0_258_4479">
<rect width="243" height="46" fill="white"/>
</clipPath>
</defs>
</svg>
